<?xml version="1.0" standalone="no"?>
<!DOCTYPE svg PUBLIC "-//W3C//DTD SVG 1.1//EN" "http://www.w3.org/Graphics/SVG/1.1/DTD/svg11.dtd" >
<svg xmlns="http://www.w3.org/2000/svg">
<metadata></metadata>
<defs>
<font id="isminiregular" horiz-adv-x="1140" >
<font-face units-per-em="2048" ascent="1638" descent="-410" />
<missing-glyph horiz-adv-x="436" />
<glyph horiz-adv-x="0" />
<glyph unicode="&#xd;" horiz-adv-x="436" />
<glyph unicode=" "  horiz-adv-x="436" />
<glyph unicode="&#x09;" horiz-adv-x="436" />
<glyph unicode="&#xa0;" horiz-adv-x="436" />
<glyph unicode="!" horiz-adv-x="641" d="M262 80q0 47 34 81t81 34t81 -34t34 -81t-34 -81t-81 -34t-81 34t-34 81zM262 1194q0 51 10 90q23 94 105 94q81 0 104 -94q10 -39 11 -90q0 -55 -13 -129q-6 -47 -14 -92l-68 -547q-4 -37 -20 -37t-21 37l-67 547q-8 45 -15 92q-12 74 -12 129z" />
<glyph unicode="&#x22;" horiz-adv-x="786" d="M143 1313q-6 33 23 61.5t65 28.5q37 0 65.5 -28.5t22.5 -61.5l-67 -402h-41zM514 1313q-6 33 22.5 61.5t65.5 28.5t65.5 -28.5t22.5 -61.5l-67 -402h-41z" />
<glyph unicode="#" horiz-adv-x="964" d="M41 393l12 94h211l51 373h-204l12 94h205l59 424h96l-59 -424h256l57 424h97l-58 -424h209l-12 -94h-211l-49 -373h211l-13 -94h-213l-57 -428h-96l57 428h-254l-59 -428h-96l59 428h-211zM360 487h256l50 373h-254z" />
<glyph unicode="$" horiz-adv-x="641" d="M139 -184q0 102 103 164h75q-82 -63 -81 -130q0 -35 24.5 -59t58.5 -24q76 0 150 73l33 -43q-127 -115 -232 -114q-55 0 -93 37.5t-38 95.5z" />
<glyph unicode="%" horiz-adv-x="847" d="M96 1239q0 68 35 119q41 61 111 61q110 1 110 -110q0 -82 -96 -90q-55 6 -59 6q-27 0 -27 -27q0 -47 55 -111q49 -59 97 -81l-17 -37q-72 27 -137 110q-72 88 -72 160zM537 1343q0 20 17 46t30 34q23 14 63 15q37 0 45 -19l182 -401q2 -4 3 -10q0 -20 -25 -31 q-25 -10 -39 8l-270 342q-6 6 -6 16z" />
<glyph unicode="&#x26;" horiz-adv-x="1501" d="M84 287q0 121 74 221q88 123 317 258l-55 160q-12 39 -12 88q0 98 34 168q88 174 283 174q102 0 164 -37q117 -70 117 -180q0 -49 -23 -105q-41 -104 -117 -160q-43 -31 -186 -96q74 -135 113 -194q70 -113 153 -211q160 160 184 311q4 25 5 45q0 94 -121 94v37h432v-37 q-72 0 -111 -28q-31 -20 -69 -82q-57 -98 -115 -197q-74 -127 -154 -221q59 -61 142 -117q90 -59 153 -59q78 0 211 114l33 -28q-12 -39 -102 -148q-78 -94 -230 -94q-106 0 -213 80q-37 27 -127 117q-59 -63 -155 -119q-139 -78 -275 -78q-55 0 -108 14q-184 47 -228 209 q-14 51 -14 101zM272 365q0 -86 45 -154q88 -135 218 -135q88 0 186 63q61 41 94 78l2 6q-131 162 -313 473q-43 -20 -98 -67q-70 -59 -99 -117q-35 -68 -35 -147zM571 1094q0 -51 13 -93q25 -82 65 -159q129 76 156 98q78 67 82 176q4 82 -43 127q-43 37 -107 37 q-74 0 -120 -45t-46 -141z" />
<glyph unicode="'" horiz-adv-x="346" d="M96 1313q-6 33 22.5 61.5t65.5 28.5t65.5 -28.5t22.5 -61.5l-67 -402h-41z" />
<glyph unicode="(" horiz-adv-x="679" d="M109 494q0 287 112 501q70 131 209 265q125 123 164 118l20 -35q-154 -123 -223 -260q-20 -41 -63 -184q-47 -156 -47 -405q0 -250 47 -406q43 -143 63 -184q69 -137 223 -260l-20 -35q-39 -4 -164 119q-139 133 -209 264q-113 215 -112 502z" />
<glyph unicode=")" horiz-adv-x="679" d="M61 -356q154 123 224 260q20 41 63 184q47 156 47 406q0 252 -47 407q-43 143 -63 184q-70 137 -224 261l21 34q39 4 164 -118q139 -133 209 -265q112 -214 112 -503q0 -287 -112 -502q-70 -131 -209 -264q-125 -123 -164 -119z" />
<glyph unicode="*" horiz-adv-x="1024" d="M131 797q0 43 39 68.5t74 19.5q45 -6 231 78q-123 76 -282 106q-55 10 -56 76q0 27 19 47q25 29 59 29q72 0 96 -66q10 -29 183 -168q0 168 -54 316q-2 8 -2 16q0 33 27 59.5t63 18.5q68 -14 68 -88q0 -41 -21 -66q-31 -37 -47 -256q129 59 238 187q23 18 55 18 q54 0 70 -47q4 -14 4 -29q0 -43 -39 -68.5t-70.5 -20.5t-102.5 -19.5t-138 -49.5q127 -70 282 -98q55 -10 56 -76q0 -27 -19 -47q-25 -29 -59 -28q-72 0 -96 65q-14 39 -185 164q-2 -66 21.5 -167t23.5 -150q0 -33 -22 -56q-25 -29 -62 -20q-68 14 -67 88q0 41 19.5 64.5 t33.5 99.5q10 70 23 141q-131 -78 -234 -199q-18 -20 -53 -20q-55 0 -72 49q-4 14 -4 29z" />
<glyph unicode="+" horiz-adv-x="847" d="M117 1239q0 68 35 119q41 61 110 61q111 1 111 -110q0 -82 -99 -90q-55 6 -57 6q-27 0 -27 -27q0 -47 56 -111q49 -59 96 -81l-16 -37q-72 27 -138 110q-72 88 -71 160zM520 997q0 4 2 11l180 403q8 18 46 19q41 0 65 -17q45 -29 45 -78q0 -10 -6 -18l-270 -342 q-8 -10 -23 -10q-39 0 -39 32z" />
<glyph unicode="," horiz-adv-x="483" d="M115 92q0 59 37.5 91t83.5 32q49 0 96 -35q41 -33 57 -76q8 -25 8 -61q0 -125 -78 -219q-37 -43 -91 -86t-72 -47q-41 -8 -41 14q0 6 4 19q45 35 90 67q84 68 98 154q2 14 2 22q0 37 -30 31q-80 -10 -62 -10q-102 4 -102 104z" />
<glyph unicode="-" horiz-adv-x="681" d="M88 397v129h504v-129h-504z" />
<glyph unicode="." horiz-adv-x="483" d="M141 80q0 47 34 81t81 34t81 -34t34 -81t-34 -81t-81 -34t-81 34t-34 81z" />
<glyph unicode="/" horiz-adv-x="534" d="M0 -35l430 1358h90l-430 -1358h-90z" />
<glyph unicode="0" horiz-adv-x="964" d="M47 688q0 375 174 590q102 125 285 125q184 0 287 -127q172 -213 172 -586q0 -334 -156 -563q-111 -162 -303 -162q-193 0 -303 162q-156 229 -156 561zM238 682q0 -324 75 -492q31 -68 85.5 -108.5t107.5 -40.5t107 40.5t85 106.5q76 168 76 492q0 172 -21.5 321.5 t-54.5 200.5q-78 125 -192 125q-115 0 -193 -125q-31 -51 -53 -199.5t-22 -320.5z" />
<glyph unicode="1" horiz-adv-x="964" d="M240 1159v37l331 182h37v-1194q0 -147 191 -147v-37h-553v37q190 0 190 147v971q0 55 -45 55q-14 0 -35 -8z" />
<glyph unicode="2" horiz-adv-x="964" d="M51 0l4 31l398 422q29 31 84 112q66 96 90 158q61 152 55 229q-18 252 -229 285q-29 4 -56 4q-141 0 -225 -121q-29 -41 -63 -139h-43q16 236 210 360q98 63 218 64q121 0 219 -64.5t127 -166.5q25 -88 24 -160q0 -72 -37 -162q-72 -172 -286 -399l-287 -303h461 q98 0 143 36q10 8 72 93h43l-121 -279h-801z" />
<glyph unicode="3" horiz-adv-x="964" d="M80 1073q49 129 72 164q76 117 219 156q53 14 118 14q90 0 156 -29q160 -70 160 -239q0 -29 -6 -56q-14 -61 -69.5 -128.5t-111.5 -98.5q47 -25 95 -51q63 -43 112 -131q66 -121 66 -252q0 -88 -35 -166q-113 -244 -446 -283q-82 -10 -115 -10q-82 0 -129 35 q-59 43 -60 90q0 18 7 39q12 39 77 39q31 0 56.5 -13.5t77.5 -60.5q39 -33 82 -41q27 -6 55 -6q166 0 237 137q37 70 37 148q0 76 -37 168q-61 152 -204 190q-84 12 -166 23q-23 8 -23 20q0 10 17 23q51 20 102 41q94 43 164 123q53 61 53 153q0 182 -197 207q-20 2 -38 2 q-98 0 -177 -68q-47 -43 -110 -139h-39z" />
<glyph unicode="4" horiz-adv-x="964" d="M33 326v145l647 932h102v-934h179v-143h-179v-326h-172v326h-577zM123 469h487v682z" />
<glyph unicode="5" horiz-adv-x="964" d="M57 94q0 53 52 74q16 6 34 6q47 0 176 -80q76 -47 140 -47q57 0 119 41q143 94 143 289q0 201 -138.5 316.5t-461.5 152.5l248 532h401q18 -4 35 -4q27 0 45 10.5t33 18.5l24 -10l-86 -199h-446l-82 -168l149 -29q133 -25 248 -123q139 -117 168 -284q25 -135 8 -236 q-18 -115 -121 -221q-158 -164 -430 -168q-258 -4 -258 129z" />
<glyph unicode="6" horiz-adv-x="964" d="M72 543q0 203 57 334q98 225 291 368q221 164 495 158l-2 -35q-289 -53 -458 -256q-119 -141 -156 -309q197 76 285 76q90 0 168 -43q205 -113 204 -400q1 -106 -28 -190q-43 -129 -157 -206t-247 -77q-270 0 -393 273q-59 129 -59 307zM270 498q0 -244 92 -365 q72 -94 191 -94q101 0 164 92q53 78 53 252q0 252 -111 348q-57 49 -149 49q-31 0 -66 -6q-100 -18 -159 -74q-14 -215 -15 -202z" />
<glyph unicode="7" horiz-adv-x="964" d="M49 1051l125 327h744v-65l-439 -1348h-121l400 1229h-465q-76 0 -123 -49q-23 -23 -76 -113z" />
<glyph unicode="8" horiz-adv-x="964" d="M111 295q0 90 45 172q68 125 213 229l-101 105q-51 43 -88 119q-45 88 -45 174q0 111 74 194q100 117 299 117q104 0 193.5 -38t129 -101.5t39.5 -141.5q0 -98 -45 -161q-86 -123 -231 -205q68 -39 174 -144q135 -131 135 -299q0 -102 -51 -188q-45 -74 -140.5 -119 t-203.5 -45q-199 0 -322 137q-76 84 -75 195zM266 375q-14 -113 39 -211q68 -125 213 -125q100 0 164 57q79 72 59 213q-18 131 -137 215l-162 115q-72 -35 -123 -121q-45 -74 -53 -143zM276 1133q0 -23 5 -46q29 -131 153 -213l92 -61q55 29 121 105q74 86 74 206 q0 115 -96 174q-49 31 -127 31q-80 0 -127 -31q-94 -61 -95 -165z" />
<glyph unicode="9" horiz-adv-x="964" d="M63 909q0 215 136 365q115 129 280 129q113 0 216.5 -61.5t152.5 -155.5q94 -178 94 -385q0 -324 -211 -561q-227 -258 -600 -275l-4 39q213 53 342 158q98 80 178 221q74 131 78 213q-184 -104 -303 -104q-152 0 -258 122q-100 117 -101 295zM252 993q0 -233 82 -334 q68 -80 158 -79q31 0 67 8q100 24 176 96q10 74 -2 227q-18 233 -94 326.5t-176 93.5q-113 0 -176 -114q-35 -63 -35 -224z" />
<glyph unicode=":" horiz-adv-x="534" d="M166 80q0 47 33.5 81t81.5 34q47 0 80.5 -34t33.5 -81t-33.5 -81t-80.5 -34t-81 34t-34 81zM166 827q0 47 33.5 81t81.5 34q47 0 80.5 -34t33.5 -81t-33.5 -80.5t-80.5 -33.5t-81 33.5t-34 80.5z" />
<glyph unicode=";" horiz-adv-x="534" d="M170 92q0 59 38 91t83 32q49 0 96 -35q41 -33 57 -76q8 -25 9 -61q0 -125 -78 -219q-37 -43 -91.5 -86t-72.5 -47q-41 -8 -41 14q0 6 4 19q45 35 90 67q84 68 98 154q2 14 3 22q0 37 -31 31q-80 -10 -62 -10q-102 4 -102 104zM188 827q0 47 34 81t81 34t81 -34t34 -81 t-34 -80.5t-81 -33.5t-81 33.5t-34 80.5z" />
<glyph unicode="&#x3c;" horiz-adv-x="1058" d="M53 471v127l1018 471v-127l-887 -407l887 -408v-127z" />
<glyph unicode="=" horiz-adv-x="847" d="M190 1309q0 111 111 110q70 0 111 -61q34 -51 34 -119q0 -72 -68.5 -158t-139.5 -112l-17 37q47 23 99.5 84t52.5 108q0 27 -27 27q-4 0 -59 -6q-96 8 -97 90zM526 997q0 6 2 11l183 403q8 16 45 16q41 0 63 -14q45 -29 45 -78q0 -10 -6 -18l-268 -342q-8 -10 -23 -10 q-41 0 -41 32z" />
<glyph unicode="&#x3e;" horiz-adv-x="1058" d="M53 0v127l887 408l-887 407v127l1018 -471v-127z" />
<glyph unicode="?" horiz-adv-x="483" d="M139 688q0 47 34 83t83 36t84 -35t35 -84q0 -51 -35 -84t-84 -33t-83 35t-34 82z" />
<glyph unicode="@" horiz-adv-x="1777" d="M0 522q0 74 16 135q23 84 90 205q90 160 199 252q225 193 500 252q162 35 297 8q92 -18 151 -41q121 -47 207 -129q147 -141 197 -315q20 -74 20 -193q0 -88 -12 -151q-29 -141 -158 -320q-100 -139 -258 -139q-23 0 -49 2q-47 4 -51 6q-27 8 -66 37q-31 23 -45 54.5 t-28 66.5q-31 -33 -60 -68q-59 -55 -127.5 -77.5t-109.5 -22.5q-33 0 -68 8q-84 20 -131 103q-43 74 -43 176q0 209 119 379q109 156 260 204q102 35 182 -2q57 -27 105 -110l26 98h174l-166 -643q-10 -37 -10 -49q0 -37 38 -55.5t75 -18.5q72 0 135 57q113 100 166 289 q31 106 31 187q0 80 -25 149q-57 166 -178 285q-131 129 -295 157q-111 20 -242 -6q-264 -53 -442 -237q-168 -172 -203 -398q-23 -145 -22 -206q0 -115 43 -250q68 -211 235.5 -325t415.5 -114q162 0 278 35q78 25 215 99l37 -76l-239 -101l-207 -36h-150q-207 0 -417 133 q-219 135 -324 340q-86 170 -86 366zM664 307q0 -61 33.5 -100t95.5 -33q49 6 106 53q47 37 72 76q33 53 73 170q54 150 50 244q-4 117 -84 160q-12 6 -29 6q-90 0 -197 -131q-121 -150 -120 -338v-107z" />
<glyph unicode="A" horiz-adv-x="1253" d="M8 0v37q70 0 103 43q10 14 39 88l460 1210h49l465 -1210q29 -74 39 -88q33 -43 105 -43v-37h-463v37q119 0 119 80q0 27 -11 59l-90 270h-481l-88 -270q-10 -33 -10 -59q0 -80 118 -80v-37h-354zM377 532h420l-209 549z" />
<glyph unicode="B" horiz-adv-x="1189" d="M53 0v37q86 0 123 22q45 31 45 109v1040q0 78 -45 109q-35 22 -116 22h-7v37h514q154 0 256 -35q113 -39 165 -126t52 -197q0 -70 -26 -133q-43 -102 -205 -162q147 -37 223 -135q66 -83 66 -193v-18q-14 -242 -203 -332q-94 -45 -213 -45h-629zM414 180q0 -47 10 -65 q16 -29 70 -29h110q143 0 219 90q64 73 64 184q0 174 -117 252q-88 59 -203 60h-153v-492zM414 758h145q262 0 287 203q4 29 4 55q0 246 -283 272q-54 5 -89 5q-65 0 -64 -17v-518z" />
<glyph unicode="C" horiz-adv-x="1427" d="M29 1362v37q92 -6 127 -19q45 -14 86 -59q33 -35 59.5 -92.5t28.5 -89.5l14 -183q12 -168 113 -225q57 -33 184 -35v512q0 78 -45 109q-35 22 -114 22h-7v37h524v-37q-84 0 -120 -22q-45 -31 -45 -109v-512q127 2 184 35q100 57 112 225l15 183q2 33 28.5 90t59.5 92 q41 45 86 59q35 12 127 19v-37q-51 -25 -66 -45q-20 -31 -24 -109l-13 -260q-8 -182 -186 -270q-129 -63 -323 -64v-446q0 -78 45 -109q35 -22 113 -22h7v-37h-524v37q84 0 121 22q45 31 45 109v446q-195 0 -324 64q-178 88 -186 270l-12 260q-4 78 -25 109q-14 20 -65 45z " />
<glyph unicode="D" horiz-adv-x="1105" d="M10 0l594 1409l522 -1409h-1116zM133 100h764l-360 959z" />
<glyph unicode="E" horiz-adv-x="1177" d="M59 0v37q86 0 121 22q45 31 45 109v1042q0 78 -45 109q-34 22 -114 22h-7v37h983v-303h-49q-35 133 -37 137q-37 68 -139 68h-399v-512h291q106 0 149 51q39 43 39 142h43v-472h-43q0 98 -41 145.5t-147 47.5h-291v-508q0 -88 73 -88h3l301 8q129 4 202 90q35 41 88 164 h58l-84 -348h-1000z" />
<glyph unicode="F" horiz-adv-x="1372" d="M47 678q0 236 166 369q88 70 190 94q76 16 215 16q0 182 -186 182v37h563v-37q-188 0 -188 -182q137 0 211 -16q102 -25 190 -94q164 -131 164 -369q0 -242 -190 -363q-147 -94 -375 -94q0 -184 190 -184v-37h-567v37q188 0 188 184q-231 0 -378 94q-193 123 -193 363z M272 678q10 -182 86 -275q92 -110 260 -110v801q-178 0 -282 -164q-65 -102 -65 -224q0 -14 1 -28zM807 293q172 0 262 110q78 97 86 275v23q0 129 -63 229q-104 164 -285 164v-801z" />
<glyph unicode="G" horiz-adv-x="1091" d="M45 1337v41h1053l30 -331h-47q-8 76 -22 108q-23 53 -84 90q-68 41 -195 41h-356v-1118q0 -78 45 -109q35 -22 116 -22h7v-37h-526v37q84 0 120 22q45 31 45 109v965q0 135 -79 182q-33 18 -107 22z" />
<glyph unicode="H" horiz-adv-x="1372" d="M72 0v37q86 0 123 22q45 31 45 109v1042q0 78 -45 109q-35 22 -116 22h-7v37h526v-37q-86 0 -121 -22q-45 -31 -45 -109v-462h559v462q0 78 -45 109q-35 22 -114 22h-7v37h527v-37q-86 0 -123 -22q-45 -31 -45 -109v-1042q0 -78 45 -109q35 -22 116 -22h7v-37h-527v37 q84 0 121 22q45 31 45 109v494h-559v-494q0 -78 45 -109q34 -22 114 -22h7v-37h-526z" />
<glyph unicode="I" horiz-adv-x="651" d="M59 0v37q86 0 121 22q45 31 45 109v1042q0 78 -45 109q-34 22 -114 22h-7v37h527v-37q-86 0 -123 -22q-45 -31 -45 -109v-1042q0 -78 45 -109q35 -22 116 -22h7v-37h-527z" />
<glyph unicode="J" horiz-adv-x="1167" d="M74 0v397h32q16 -121 39 -155q31 -51 123 -52h647q92 0 123 52q23 35 37 155h35v-397h-1036zM115 1067v309h954v-309h-31q-6 55 -18 76q-27 49 -105 49h-647q-78 0 -106 -49q-8 -14 -19 -76h-28zM272 512v422h33q4 -70 24.5 -91.5t71.5 -21.5h381q51 0 71.5 21.5 t25.5 91.5h32v-422h-32q-4 70 -24.5 92.5t-72.5 22.5h-381q-51 0 -71.5 -22.5t-24.5 -92.5h-33z" />
<glyph unicode="K" horiz-adv-x="1304" d="M66 0v37q84 0 120 22q45 31 45 109v1040q0 78 -45 109q-35 22 -113 22h-7v37h526v-37q-86 0 -123 -22q-45 -31 -45 -109v-473q242 219 440 447q45 51 45 88q0 69 -155 69h-4v37h483v-37q-70 0 -109 -18q-51 -25 -116 -100q-154 -180 -385 -420l477 -592q88 -109 145 -143 q27 -16 92 -29v-37h-563v37q145 0 146 59q0 33 -46 88l-389 484l-61 -62v-438q0 -78 45 -109q35 -22 116 -22h7v-37h-526z" />
<glyph unicode="L" horiz-adv-x="1236" d="M10 0v37q41 0 96 33q76 41 101 116l416 1223l462 -1219q57 -153 173 -153h2v-37h-504v37q133 0 133 98q0 29 -15 68l-301 813l-270 -809q-18 -53 -18 -88q0 -55 41 -72q25 -10 84 -10v-37h-400z" />
<glyph unicode="M" horiz-adv-x="1642" d="M51 1341v37h373l434 -1044l414 1044h368v-37q-88 0 -102 -4q-61 -20 -61 -114v-1055q0 -78 45 -109q35 -22 113 -22h7v-37h-526v37q86 0 123 22q45 31 45 109v1003l-455 -1171h-32l-482 1112v-944q0 -131 166 -131v-37h-424v37q166 0 166 131v1020q0 98 -28.5 120.5 t-143.5 32.5z" />
<glyph unicode="N" horiz-adv-x="1329" d="M53 0v37q168 0 168 131v1067q-35 43 -67 84q-27 24 -70 24q-13 0 -27 -2v37h310l710 -999v831q0 78 -45 109q-35 22 -116 22h-7v37h424v-37q-84 0 -121 -22q-45 -31 -45 -109v-1226h-41l-815 1120v-936q0 -131 166 -131v-37h-424z" />
<glyph unicode="O" horiz-adv-x="1226" d="M76 688q0 360 227 563q170 152 397 152t398 -152q227 -203 227 -563q0 -365 -227 -571q-166 -152 -398 -152q-231 0 -397 152q-227 207 -227 571zM293 664q0 -129 22 -246q29 -139 101 -230q115 -143 284 -143q174 0 289 143q63 80 96 230q25 115 25 250q0 133 -24.5 257 t-73.5 210q-106 188 -312 188q-205 0 -311 -188q-39 -70 -70 -209q-26 -121 -26 -252v-10z" />
<glyph unicode="P" horiz-adv-x="1380" d="M47 0v37q84 0 121 22q45 31 45 109v1014q0 159 -162 159h-2v37h1325v-37q-162 0 -162 -159l2 -1014q0 -78 46 -109q34 -22 113 -22h7v-37h-526v37q86 0 121 22q45 31 45 109v1126h-617l3 -1126q0 -78 45 -109q35 -22 113 -22h7v-37h-524z" />
<glyph unicode="Q" d="M86 555q29 205 201 322q76 51 194 51q137 0 226 -113q74 -94 98 -242l119 330h163l-213 -588q20 -121 76 -174q37 -35 68 -35t57 27q35 35 43 123h35l-4 -111q-4 -94 -70 -147q-31 -25 -59 -25q-33 0 -66 31q-53 51 -118 227q-68 -117 -68 -118q-66 -84 -170 -117 q-86 -27 -147 -27q-74 0 -150 33q-102 45 -158 139q-67 113 -67 274q0 68 10 140zM274 553q-7 -53 -7 -109q0 -96 20 -200q18 -102 71.5 -155.5t116.5 -57.5h7q46 0 106 49q63 53 110 182l56 152q-31 233 -82 315q-55 90 -133 113q-43 12 -74 12q-57 0 -109 -63 q-61 -78 -82 -238zM469 -315q23 98 61 182h91q-29 -49 -54 -141q-8 -33 -8 -60q0 -73 59 -73q7 0 15 1h7q34 0 58 17q6 4 43 41l-22 -162q-63 -41 -121 -41q-41 0 -74 21q-67 42 -67 128q0 38 12 87z" />
<glyph unicode="R" horiz-adv-x="1050" d="M51 0v37q86 0 123 22q45 31 45 109v1042q0 78 -45 109q-35 22 -116 22h-7v37h514q154 0 256 -35q113 -39 166 -126q55 -94 55 -220q0 -61 -16 -118q-45 -143 -199 -226q-86 -46 -221 -46q-16 0 -33 1l-161 6v-446q0 -78 45 -109q35 -22 114 -22h7v-37h-527zM412 723 q29 -23 108 -23q78 0 180 21q143 29 144 258q0 26 -2 57q-12 137 -78 197q-33 31 -117 55q-39 12 -98 12q-33 0 -72 -4q-66 -6 -65 -49v-524z" />
<glyph unicode="S" horiz-adv-x="1071" d="M8 0l522 670l-499 708h960l19 -309h-35q-23 92 -55 137q-59 78 -179 78h-407l373 -528l-439 -563h543q98 0 145 38q59 49 99 189h37l-70 -420h-1014z" />
<glyph unicode="T" horiz-adv-x="1142" d="M61 1028l9 350h1046l8 -350l-47 -4q0 262 -266 270l-123 4v-1130q0 -78 45 -109q35 -22 116 -22h7v-37h-526v37q86 0 121 22q45 31 45 109v1130l-121 -4q-266 -8 -266 -270z" />
<glyph unicode="U" horiz-adv-x="1333" d="M76 688q0 360 227 563q170 152 397 152t398 -152q227 -203 227 -563q0 -365 -227 -571q-166 -152 -398 -152q-231 0 -397 152q-227 207 -227 571zM291 670q0 -135 24 -252q33 -150 97 -230q115 -143 284 -143q178 0 293 143q63 80 96 230q25 117 25 252q0 133 -24.5 256 t-73.5 209q-106 188 -312 188q-205 0 -311 -188q-49 -86 -73.5 -209t-24.5 -256zM432 516q10 113 10 176q0 66 -10 174l27 2q33 -108 123 -108h2h233q92 0 125 108l27 -2q-10 -109 -11 -174q1 -63 11 -176l-27 -2q-33 109 -125 109h-233q-92 0 -125 -109z" />
<glyph unicode="V" horiz-adv-x="1380" d="M63 0v332h27q16 -76 41 -100.5t82 -24.5h293l-4 57q-215 72 -308.5 222.5t-93.5 328.5q0 150 65.5 280t207 222t340.5 92q201 0 340 -90q70 -45 96 -70q68 -61 115 -157q63 -125 63 -275q0 -178 -94 -330.5t-309 -222.5l-2 -57h292q57 0 81 24.5t40 100.5h29v-332h-547 l29 311q82 39 104 60q68 55 114 171.5t46 280.5q0 272 -129 414q-96 106 -268 106t-269 -106q-129 -143 -129 -416q0 -164 45 -276q47 -119 115 -176q23 -18 105 -58l30 -311h-547z" />
<glyph unicode="W" horiz-adv-x="999" d="M154 -426q0 6 14 78q8 51 8 84l-8 784q-2 229 233 361q78 43 158 43q37 0 82 -6q139 -20 229.5 -136.5t98.5 -294.5q1 -13 1 -27q0 -134 -73 -266q-80 -146 -207 -198q-72 -29 -133 -29q-37 0 -76 10q-104 29 -147 99v-289q0 -139 -19 -213h-161zM317 623l11 -408 q2 -41 53 -98q66 -70 156 -70q111 0 180 78q88 96 88 268q0 125 -60 242q-78 156 -231 184q-20 3 -37 3q-53 0 -90 -31q-70 -64 -70 -163v-5zM352 1348q0 68 35 118q41 61 111 62q110 0 110 -111q0 -80 -98 -90q-55 6 -57 6q-27 0 -27 -26q0 -47 55 -111q49 -59 97 -82 l-17 -37q-72 27 -137 111q-72 88 -72 160z" />
<glyph unicode="X" horiz-adv-x="1280" d="M-16 0v37q121 0 190 98l391 547l-364 565q-60 94 -169 94h-5v37h557v-37h-9q-136 0 -137 -57q0 -23 17 -51l229 -387l258 371q31 45 31 71q0 53 -122 53h-9v37h430v-37q-123 0 -195 -98l-344 -475l400 -637q59 -94 172 -94v-37h-557v37q145 0 145 59q0 20 -16 49 l-263 453l-305 -436q-20 -31 -20 -58q0 -67 118 -67h3v-37h-426z" />
<glyph unicode="Y" horiz-adv-x="1243" d="M-14 1341v37h549v-37h-9q-134 0 -135 -59q0 -20 17 -49l288 -490l260 474q25 47 25 71q0 53 -109 53h-16v37h430v-37q-68 0 -100 -12q-55 -18 -94 -86l-355 -602v-473q0 -78 45 -109q35 -22 114 -22h7v-37h-524v37q84 0 121 22q45 31 45 109v446l-393 633q-59 94 -158 94 h-8z" />
<glyph unicode="Z" horiz-adv-x="1171" d="M82 0v39l795 1253h-424q-154 0 -213 -82q-29 -39 -68 -190h-47l29 358h966v-55l-764 -1237h467q166 0 238 107q25 37 63 178h54l-45 -371h-1051z" />
<glyph unicode="[" horiz-adv-x="829" d="M100 231q0 35 11 68q37 119 196 168q-80 37 -110 59q-37 29 -56 74q-14 35 -14 72q0 100 96 176q104 82 283 82q96 0 143 -19q88 -35 123 -86q20 -33 21 -63q0 -51 -45 -78q-14 -8 -39 -8q-76 0 -101 96q-23 90 -133 90q-39 0 -76 -16q-102 -47 -102 -176q0 -23 2 -37 q29 -143 195 -127l100 10q80 8 80 -41q0 -25 -37 -43q-43 -23 -123 -8q-27 4 -51 4q-168 0 -168 -180q0 -68 29 -105q72 -96 239 -96q63 0 109 14q92 29 133 150l47 -12q-4 -154 -195 -209q-88 -25 -176 -25q-156 0 -272 72q-109 68 -109 194zM162 1417q0 111 110 111 q70 0 111 -62q35 -50 35 -118q0 -72 -68.5 -158t-140.5 -113l-16 37q47 23 99 84.5t52 108.5q0 27 -27 26q-4 0 -59 -6q-96 10 -96 90zM492 1466q0 20 18 50q16 23 29 30q25 14 63 15q37 0 45 -19l182 -401q2 -4 2 -11q0 -20 -24 -30q-25 -10 -39 8l-270 342q-6 6 -6 16z " />
<glyph unicode="\" horiz-adv-x="614" d="M168 1239q0 68 35 119q41 61 110 61q111 1 111 -110q0 -82 -98 -90q-55 6 -58 6q-27 0 -26 -27q0 -47 55 -111q49 -59 96 -81l-16 -37q-72 27 -137 110q-72 88 -72 160z" />
<glyph unicode="]" horiz-adv-x="948" d="M63 446q0 195 123 340q117 139 299 140q129 0 244 -80q199 -137 199 -393q0 -225 -162 -381q-111 -106 -270 -107q-104 0 -203 49q-229 158 -230 432zM190 1405q0 111 111 111q70 0 111 -62q34 -51 34 -119q0 -72 -68.5 -157.5t-139.5 -112.5l-17 37q47 23 99.5 84 t52.5 108q0 27 -27 27q-4 0 -59 -6q-96 10 -97 90zM242 510q0 -195 80 -338q74 -131 202 -131q98 0 163 97t65 290q0 227 -101 348q-78 94 -176 94q-61 0 -114.5 -37.5t-77.5 -93.5q-41 -96 -41 -229zM516 1466q0 20 19 50q16 23 28 30q25 14 64 15q37 0 45 -19l182 -401 q2 -4 2 -11q0 -20 -25 -30t-38 8l-271 342q-6 6 -6 16z" />
<glyph unicode="^" horiz-adv-x="1042" d="M37 442q133 238 291 238q76 0 240.5 -72.5t213.5 -72.5q127 0 215 176l72 -82q-119 -223 -289 -223q-80 0 -232.5 71.5t-221.5 71.5q-74 0 -131 -64q-33 -33 -86 -125z" />
<glyph unicode="_" horiz-adv-x="1024" d="M-14 412v100h1052v-100h-1052z" />
<glyph unicode="`" horiz-adv-x="641" d="M33 1313q0 76 63 76q72 0 119 -66l283 -285h-82l-295 187q-88 55 -88 88z" />
<glyph unicode="a" d="M86 555q29 205 201 322q76 51 194 51q137 0 226 -113q74 -94 98 -242l119 330h163l-213 -588q20 -121 76 -174q37 -35 68 -35t57 27q35 35 43 123h35l-4 -111q-4 -94 -70 -147q-31 -25 -59 -25q-33 0 -66 31q-53 51 -118 227q-68 -117 -68 -118q-66 -84 -170 -117 q-86 -27 -147 -27q-74 0 -150 33q-102 45 -158 139q-67 113 -67 274q0 68 10 140zM274 553q-7 -53 -7 -109q0 -96 20 -200q18 -102 71.5 -155.5t116.5 -57.5h7q48 0 106 49q64 53 110 182l56 152q-31 233 -82 315q-55 90 -133 113q-43 12 -74 12q-57 0 -109 -63 q-61 -78 -82 -238z" />
<glyph unicode="b" horiz-adv-x="1060" d="M125 -455q2 16 20 156q12 94 13 156v1339q0 109 67 184q37 41 120 89.5t192 48.5q168 0 299 -107q112 -89 112 -221q0 -20 -4 -41q-14 -96 -63 -162q-29 -39 -105 -102q195 -92 258 -314q20 -72 21 -157q-1 -72 -15 -131q-57 -227 -243 -293q-70 -25 -148 -25 q-44 0 -92 8q-109 18 -233 105l-5 -379q0 -18 -16 -154h-178zM317 193q53 -49 58 -54q35 -29 76 -45q80 -31 147 -31q63 0 111 27q98 55 125 182q10 51 10 113q0 248 -129 393q-40 44 -97 44q-7 0 -14 -1q-40 -4 -68 -4q-39 0 -55 8q-35 18 -35 47t29 54q20 16 62 16 q6 0 102 -12h3q25 0 67 53q45 57 45 178q0 158 -101 238q-61 49 -129 49q-33 0 -63 -12q-55 -23 -99.5 -85.5t-44.5 -127.5v-1030z" />
<glyph unicode="c" horiz-adv-x="1236" d="M23 870v33q59 23 111 23q17 0 32 -2q125 -18 178 -140q23 -51 45 -270l27 -258q18 -172 186 -215v862h117v-862q166 41 184 215l29 258q8 78 17 152.5t28 117.5q53 121 176 140q17 2 34 2q53 0 111 -23v-33q-72 -16 -86 -24q-53 -27 -61 -103l-37 -368q-6 -59 -45 -140 t-80 -124q-70 -72 -135 -101q-29 -14 -135 -41v-391h-117v391q-106 27 -135 41q-66 29 -135 101q-41 43 -81 123.5t-46 140.5l-35 368q-6 76 -59 103q-14 8 -88 24z" />
<glyph unicode="d" horiz-adv-x="997" d="M82 416q0 127 72 248q68 115 211 188q80 33 157 63l-237 218q-51 47 -74 122q-10 35 -10 64q0 55 39 98q10 12 66 55.5t188 43.5q98 0 172 -17q141 -31 198 -100q37 -45 37 -88q0 -33 -29.5 -58.5t-62.5 -25.5q-61 0 -141 84q-55 59 -74 73q-29 23 -76 37q-37 12 -69 13 q-72 0 -125 -56q-25 -25 -25 -65q0 -51 45 -96q70 -72 295 -209q182 -113 264 -248t82 -295q0 -211 -151 -361q-96 -96 -205 -124q-57 -16 -121 -17q-98 0 -164 35q-152 80 -219 225q-43 92 -43 193zM301 457q0 -170 72 -293q59 -104 182 -105q98 0 165.5 90.5t67.5 251.5 q0 78 -18 156q-43 178 -184 299q-246 -53 -279 -305q-6 -45 -6 -94z" />
<glyph unicode="e" horiz-adv-x="829" d="M100 231q0 35 11 68q37 119 196 168q-80 37 -110 59q-37 29 -56 74q-14 35 -14 72q0 100 96 176q104 82 283 82q96 0 143 -19q88 -35 123 -86q20 -33 21 -63q0 -51 -45 -78q-14 -8 -39 -8q-76 0 -101 96q-23 90 -133 90q-39 0 -76 -16q-102 -47 -102 -176q0 -23 2 -37 q26 -129 163 -129q15 0 32 2l100 10q11 1 21 1q59 0 59 -42q0 -25 -37 -43q-26 -14 -66 -14q-26 0 -57 6q-27 4 -51 4q-168 0 -168 -180q0 -68 29 -105q72 -96 239 -96q63 0 109 14q92 29 133 150l47 -12q-4 -154 -195 -209q-88 -25 -176 -25q-156 0 -272 72 q-109 68 -109 194z" />
<glyph unicode="f" horiz-adv-x="1091" d="M68 483q0 80 26 160q45 131 187 219q78 49 178 49v-32q-66 -37 -90 -58q-76 -74 -97 -200q-10 -63 -10 -132q0 -188 62 -294q76 -131 202 -146l-18 590v12q0 133 82 215q59 57 147 58q47 0 88 -15q92 -35 166 -137q96 -137 96 -311q0 -186 -108 -314q-53 -61 -133 -110 q-97 -61 -187 -61q-8 0 -16 1v-393h-117v391q-154 29 -227 70q-156 88 -209 279q-22 80 -22 153v6zM621 551l22 -508q78 16 78 18q76 27 125 89q29 37 41 57q21 40 37 112q6 27 6 80q0 139 -49 246q-16 37 -54.5 79t-60 51t-43.5 9q-47 0 -70 -34q-33 -53 -33 -159 q0 -19 1 -40z" />
<glyph unicode="g" horiz-adv-x="821" d="M8 588q2 49 2 96q6 68 31 135q39 104 154 105q29 0 53 -6q106 -31 160 -250q49 -209 86 -404l211 651h192l-379 -806q33 -240 33 -281q0 -78 -16 -135q-32 -109 -111 -109h-6q-86 4 -86 129q0 111 110 398q-29 213 -77 401q-43 166 -85 217t-104 51q-41 0 -77 -30.5 t-50 -81.5l-10 -80h-31z" />
<glyph unicode="h" horiz-adv-x="1042" d="M0 668q4 43 10 88t39 98q53 84 162 84q45 0 87 -23.5t60 -72.5q2 -4 25 -86q68 94 96 121q81 75 192 75h3q86 0 135 -37q113 -86 117 -229l20 -922q11 -47 31 -139h-166q-10 45 -25 187l-24 829q-4 104 -52 144t-116 40q-82 0 -141 -57q-37 -45 -72 -90v-678h-158v637 q0 119 -39 168q-27 33 -61 33q-27 0 -47.5 -22.5t-28.5 -65.5t-14 -82h-33z" />
<glyph unicode="i" horiz-adv-x="643" d="M82 797v37q109 20 321 98v-684q0 -104 32 -148.5t63 -44.5q12 0 32 6q39 10 58 60q8 33 16 65h35q-39 -220 -202 -220q-8 0 -17 1q-82 6 -133 70q-41 51 -41 100v443q0 158 -60 200q-25 16 -104 17z" />
<glyph unicode="j" horiz-adv-x="950" d="M96 403q0 102 58 230q31 68 62.5 104.5t137.5 122.5q-108 122 -108 209q0 80 22 129q16 33 54 68q-35 12 -70 26q-41 20 -62 62q-16 29 -16 59q0 49 39 90q59 66 149 66q14 0 29 -4l4 -33q-33 -14 -65 -29q-49 -31 -49 -73q0 -33 33.5 -62t76.5 -33l105 82q106 83 196 83 q9 0 19 -1q65 -6 65 -59q0 -39 -30.5 -73t-86.5 -60q-66 -31 -118 -38t-105 -12q-111 -78 -119 -182v-12q0 -44 25 -80q23 -31 88 -82q147 70 225 82q49 8 88 8q63 0 101 -20q35 -18 35 -51q0 -18 -11 -37q-33 -57 -161 -72q-45 -4 -86 -4t-168 24q-96 -57 -134 -92 q-92 -86 -118 -209q-10 -47 -11 -69q0 -51 23 -107q61 -152 246 -157l235 -9q150 -6 207 -49q101 -78 101 -203q0 -14 -1 -28q-4 -49 -14 -88q-20 -78 -67 -142q-31 -41 -48 -57q-49 -47 -120 -72q-29 -10 -70 -10q-90 0 -137 39q-37 31 -37 76q0 49 41 72q16 10 42 10 q10 0 23 -2l136 -17q10 -1 21 -1q50 0 89 33q42 35 42 102q0 9 -1 18q-11 124 -147 124q-10 0 -21 -1q-63 -4 -213 -4q-168 0 -280 86q-41 33 -81 103.5t-53 131.5q-10 47 -10 94z" />
<glyph unicode="k" horiz-adv-x="997" d="M61 805v41q57 10 115 22q78 16 182 62v-404q215 215 396 355q59 47 143 47q61 0 100 -31q33 -27 33 -66q0 -55 -33.5 -77.5t-68.5 -22.5q-37 0 -64 21q-57 43 -76 43q-23 0 -66.5 -29t-213.5 -199l330 -417q53 -66 77 -84q45 -33 119 -33v-33h-436v33q84 0 84 33 q0 16 -16 36l-308 377v-479h-137v651q0 104 -55 137q-31 16 -105 17z" />
<glyph unicode="l" horiz-adv-x="1060" d="M49 -2l473 1020q-55 258 -112 303q-47 37 -97 37q-35 0 -71 -19q-53 -29 -76 -79q-12 -45 -27 -93h-39q10 139 54 236q49 113 147 113q63 0 123.5 -46.5t85.5 -111.5q82 -215 154 -559q84 -414 102 -480q29 -102 86 -143q45 -33 88 -33q25 0 49 11q49 20 74 79l20 78h39 q-8 -111 -10 -118q-10 -70 -39 -121q-60 -109 -159 -109h-11q-121 6 -178 141q-29 66 -72 267.5t-63 373.5l-352 -747h-189z" />
<glyph unicode="m" horiz-adv-x="1044" d="M102 -283q0 25 4.5 52.5t30.5 121.5q16 61 17 125v910h159v-615q0 -154 97 -196q43 -18 79 -19q35 0 72 17q98 47 135 127v686h160v-709q0 -86 43 -129q29 -29 59 -29q18 0 39 13q31 18 41 57q8 31 17 59h37q-16 -68 -33 -100q-31 -57 -94 -92q-47 -27 -97 -27 q-57 0 -94 29q-43 33 -57 74q-4 8 -19 80q-41 -61 -129 -127q-76 -56 -165 -56h-9q-55 2 -110 39q-33 27 -64 51v-43q0 -61 21 -125q29 -86 34 -122q4 -27 5 -52q0 -61 -27 -96t-64 -35q-35 0 -61.5 35t-26.5 96z" />
<glyph unicode="n" horiz-adv-x="948" d="M-16 846v37q104 10 129 16q37 8 112 41l293 -750l148 281q47 92 47 154q0 43 -17 114q-13 55 -13 90q0 25 7 39q31 59 88 60q43 0 72 -33q30 -36 30 -77q0 -19 -6 -38q-18 -59 -73 -198q-8 -16 -176 -342q-104 -205 -127 -271h-68l-317 813q-16 43 -45 54q-6 2 -84 10z " />
<glyph unicode="o" horiz-adv-x="948" d="M63 446q0 195 123 340q117 139 299 140q129 0 244 -80q199 -137 199 -393q0 -225 -162 -381q-111 -106 -270 -107q-104 0 -203 49q-229 158 -230 432zM242 510q0 -195 80 -338q74 -131 202 -131q98 0 163 97t65 290q0 227 -101 348q-78 94 -176 94q-61 0 -114.5 -37.5 t-77.5 -93.5q-41 -96 -41 -229z" />
<glyph unicode="p" horiz-adv-x="999" d="M18 625q12 35 25 71q25 59 59 109q68 96 174 96h691v-160h-234q-22 -208 -22 -418v-18q0 -92 47 -135q33 -31 71 -31q35 0 68 25.5t45 114.5h39q-2 -213 -133 -287q-41 -23 -86 -23q-41 0 -70 21q-57 41 -91 139q-20 58 -20 159q0 67 9 154l31 299h-209 q-39 -430 -86 -651q-27 -127 -123 -127q-31 0 -59.5 21.5t-34.5 50.5q-4 14 -5 28q0 33 48 95q27 33 53 65q33 45 39 94l55 424h-88q-82 0 -123 -59l-39 -57h-31z" />
<glyph unicode="q" horiz-adv-x="808" d="M74 377q0 227 166 403q113 119 245 140q46 7 85 7q62 0 108 -18q87 -34 87 -85q0 -5 -1 -9q-8 -65 -97 -65h-3q-25 0 -101 15t-121 15q-86 0 -157 -53q-51 -39 -92 -119q-47 -92 -48 -184q0 -55 19 -107q60 -167 206 -167h15l147 8q14 1 27 1q82 0 138 -32 q65 -37 102 -152q10 -33 10 -73q0 -63 -25 -123q-63 -150 -186 -195q-45 -16 -88 -16q-53 0 -98 24q-53 29 -54 86q0 35 27 58q16 12 55 18q39 4 62 -2q73 -22 110 -22q11 0 19 2q94 23 100 125v13q0 53 -29 77q-25 20 -59 20l-184 -2q-10 0 -35 -2h-41q-98 0 -174 66 q-135 119 -135 348z" />
<glyph unicode="r" horiz-adv-x="999" d="M154 -426q0 6 14 78q8 51 8 84l-8 784q-2 229 233 361q78 43 158 43q37 0 82 -6q139 -20 229.5 -136.5t98.5 -294.5q1 -13 1 -27q0 -134 -73 -266q-80 -146 -207 -198q-72 -29 -133 -29q-37 0 -76 10q-104 29 -147 99v-289q0 -139 -19 -213h-161zM317 623l11 -408 q2 -41 53 -98q66 -70 156 -70q111 0 180 78q88 96 88 268q0 125 -60 242q-78 156 -231 184q-20 3 -37 3q-53 0 -90 -31q-70 -64 -70 -163v-5z" />
<glyph unicode="s" horiz-adv-x="1091" d="M55 483q0 111 74 226q57 90 211 159q127 57 270 58h480v-158h-402q72 -27 157 -114t116 -158q26 -57 26 -120q0 -66 -22 -130q-27 -78 -91 -148q-94 -104 -229 -125q-84 -14 -121 -14q-113 0 -209 59q-113 68 -182 191q-55 94 -70 184q-8 47 -8 90zM248 430 q20 -229 160 -338q74 -57 141 -57q37 0 82 12q96 29 143 166q23 70 23 154q0 102 -31 176q-49 115 -176 225q-170 0 -254 -76q-90 -81 -90 -222q0 -19 2 -40z" />
<glyph unicode="t" horiz-adv-x="802" d="M18 578q49 180 127 268q70 80 195 80h434v-170h-285l-30 -406q-1 -15 -1 -30q0 -80 37 -126q44 -56 80 -55q10 0 23 2q47 10 66 49q6 10 26 93h33q-2 -109 -16 -160q-25 -86 -101 -131q-41 -25 -88 -25q-43 0 -82 25q-92 61 -98 250v29q0 163 39 483h-170 q-90 0 -156 -176h-33z" />
<glyph unicode="u" horiz-adv-x="964" d="M47 825q0 145 19 260q31 180 120 322q139 217 314 217q174 0 313 -217q90 -142 121 -322q18 -115 18 -260q0 -168 -20 -315q-33 -227 -125 -358q-135 -195 -307 -195t-307 195q-92 131 -125 358q-20 147 -21 315zM252 866h496l-13 224q-10 186 -82 327q-18 37 -55 74 q-53 53 -98 53t-99 -53q-37 -37 -55 -74q-72 -141 -82 -327zM254 743l12 -245q10 -207 101 -348q66 -102 133 -103q68 0 133 103q90 141 100 348l12 245h-491z" />
<glyph unicode="v" horiz-adv-x="1236" d="M80 399q0 41 4 95q23 238 195 368q61 47 147 60q8 0 125 4v-31q-150 -57 -203 -143q-80 -133 -80 -330q0 -86 15 -168q23 -117 75 -168q37 -35 84 -35q20 0 45 6q78 23 113 111q14 57 29 113q-53 150 -54 260q0 49 9 100q23 125 88 125q70 0 90 -125q8 -49 8 -96 q0 -109 -53 -264q14 -55 28 -113q35 -88 113 -111q25 -6 45 -6q47 0 84 35q51 51 74 168q16 86 16 172q0 195 -80 326q-53 86 -202 143v31q117 -4 125 -4q86 -12 147 -60q172 -130 195 -368q4 -49 4 -91q0 -115 -45 -225q-55 -133 -166 -184q-55 -27 -117 -27q-66 0 -121 33 q-84 49 -145 152q-59 -102 -144 -152q-55 -33 -120 -33q-59 0 -117 27q-113 53 -168 184q-43 106 -43 221z" />
<glyph unicode="w" horiz-adv-x="999" d="M154 -426q0 6 14 78q8 51 8 84l-8 784q-2 229 233 361q78 43 158 43q37 0 82 -6q139 -20 229.5 -136.5t98.5 -294.5q1 -13 1 -27q0 -134 -73 -266q-80 -146 -207 -198q-72 -29 -133 -29q-37 0 -76 10q-104 29 -147 99v-289q0 -139 -19 -213h-161zM317 623l11 -408 q2 -41 53 -98q66 -70 156 -70q111 0 180 78q88 96 88 268q0 125 -60 242q-78 156 -231 184q-20 3 -37 3q-53 0 -90 -31q-70 -64 -70 -163v-5zM487 1417q0 111 111 111q70 0 111 -62q34 -50 34 -118q0 -72 -68.5 -158t-139.5 -113l-17 37q47 23 99.5 84.5t52.5 108.5 q0 27 -27 26q-4 0 -59 -6q-96 10 -97 90z" />
<glyph unicode="x" horiz-adv-x="925" d="M23 594q25 205 100 289q39 43 98 43q70 0 123 -56q47 -51 64 -122l71 -310l248 451l188 -2l-378 -692q47 -205 104 -359q37 -100 125 -100q23 0 47 8q59 20 90 78q8 14 29 86h35q-18 -242 -131 -305q-55 -31 -101 -31q-51 0 -92 37q-57 53 -86 153q-14 53 -68 344 l-276 -505h-188l405 741l-59 252q-27 115 -84 156q-40 28 -79 28h-3q-47 0 -82 -35.5t-68 -148.5h-32z" />
<glyph unicode="y" horiz-adv-x="1044" d="M12 659q16 49 31 97q23 66 47.5 103.5t71.5 56.5q39 17 72 17q7 0 14 -1q51 -6 91 -41t46 -72q35 -219 35 -500q0 -131 76 -215q55 -61 108 -61q37 0 80 23q70 39 114 159.5t44 261.5q0 72 -13 138q-23 123 -92 198q-33 39 -108 84l10 33q205 -78 289 -217 q63 -106 63 -270q0 -147 -55 -263q-70 -145 -213 -196q-74 -27 -150 -27q-61 0 -112 19q-72 25 -134.5 112.5t-64.5 235.5q-2 117 -4 235q-4 137 -22 183q-16 39 -58 39q-29 0 -59 -23q-18 -12 -66 -109h-41z" />
<glyph unicode="z" horiz-adv-x="952" d="M123 461q4 129 16 196q20 109 86 271q41 100 170 274l-90 31q-96 33 -96 125q0 63 49 115q63 66 176 75l4 -37q-108 -49 -108 -126q0 -19 6 -37q18 -63 110 -91q57 53 120 107.5t155 103.5q51 27 90 27q27 0 47 -12q29 -18 29 -53q0 -33 -29 -70q-23 -29 -39 -43 q-37 -33 -100 -64q-84 -41 -199 -53q-92 -74 -192 -258q-108 -197 -108 -417q0 -22 1 -44q2 -55 6 -73q10 -57 45 -105q79 -110 189 -110h10l94 4q19 1 37 0q176 0 257 -71q89 -79 97 -200q1 -14 1 -28q0 -110 -55 -202q-62 -104 -161 -136q-61 -20 -123 -21q-57 0 -98 17 q-76 31 -76 90q0 98 109 98q16 0 37 -4q33 -6 86 -21q43 -12 63 -12q25 0 49 12q82 40 82 143q0 64 -48 100q-41 30 -102 30h-15q-66 -6 -130 -12q-29 -2 -55 -2q-43 0 -78 6q-68 12 -145 65q-94 63 -127 146q-47 118 -47 246v20z" />
<glyph unicode="{" horiz-adv-x="1044" d="M12 659q16 49 31 97q23 66 47.5 103.5t71.5 57t86 15.5q51 -6 91 -41t46 -72q35 -219 35 -500q0 -131 76 -215q55 -61 108 -61q37 0 80 23q70 39 114 159.5t44 261.5q0 72 -13 138q-23 123 -92 198q-33 39 -108 84l10 33q205 -78 289 -217q63 -106 63 -270 q0 -147 -55 -263q-70 -145 -213 -196q-74 -27 -150 -27q-61 0 -112 19q-72 25 -134.5 112.5t-64.5 235.5q-2 117 -4 235q-4 137 -22 183q-16 39 -58 39q-29 0 -59 -23q-18 -12 -66 -109h-41zM221 1417q0 111 109 111q70 0 112 -62q35 -50 35 -118q0 -72 -68.5 -158 t-140.5 -113l-16 37q47 23 99 84.5t52 108.5q0 27 -26 26q-4 0 -60 -6q-96 10 -96 90zM559 1130q0 4 2 11l180 401q8 18 47 19q39 0 64 -15q12 -8 28.5 -32.5t16.5 -45.5q0 -10 -6 -18l-270 -342q-8 -10 -23 -10q-39 0 -39 32z" />
<glyph unicode="|" horiz-adv-x="579" d="M293 1309q0 111 110 110q70 0 111 -61q35 -51 35 -119q0 -72 -68.5 -158t-140.5 -112l-16 37q47 23 99 84t52 108q0 27 -26 27q-4 0 -60 -6q-96 8 -96 90z" />
<glyph unicode="}" horiz-adv-x="643" d="M14 1417q0 111 111 111q70 0 111 -62q34 -50 34 -118q0 -72 -68.5 -158t-140.5 -113l-16 37q47 23 99.5 84.5t52.5 108.5q0 27 -27 26q-4 0 -59 -6q-96 10 -97 90zM82 797v37q109 20 321 98v-684q0 -104 32 -148.5t63 -44.5q12 0 32 6q39 10 58 60q8 33 16 65h35 q-41 -231 -219 -219q-82 6 -133 70q-41 51 -41 100v443q0 158 -60 200q-25 16 -104 17zM358 1466q0 20 19 50q16 23 29 30q25 14 63 15q37 0 45 -19l182 -401q2 -4 2 -11q0 -20 -24 -30q-25 -10 -39 8l-270 342q-6 6 -7 16z" />
<glyph unicode="~" horiz-adv-x="1236" d="M80 399q0 41 4 95q23 238 195 368q61 47 147 60q8 0 125 4v-31q-150 -57 -203 -143q-80 -133 -80 -330q0 -86 15 -168q23 -117 75 -168q37 -35 84 -35q20 0 45 6q78 23 113 111q14 57 29 113q-53 150 -54 260q0 49 9 100q23 125 88 125q70 0 90 -125q8 -49 8 -96 q0 -109 -53 -264q14 -55 28 -113q35 -88 113 -111q25 -6 45 -6q47 0 84 35q51 51 74 168q16 86 16 172q0 195 -80 326q-53 86 -202 143v31q117 -4 125 -4q86 -12 147 -60q172 -130 195 -368q4 -49 4 -91q0 -115 -45 -225q-55 -133 -166 -184q-55 -27 -117 -27q-66 0 -121 33 q-84 49 -145 152q-59 -102 -144 -152q-55 -33 -120 -33q-59 0 -117 27q-113 53 -168 184q-43 106 -43 221zM416 1417q0 111 110 111q70 0 111 -62q35 -50 35 -118q0 -72 -68.5 -158t-140.5 -113l-17 37q47 23 99.5 84.5t52.5 108.5q0 27 -27 26q-4 0 -59 -6q-96 10 -96 90z M752 1130q0 4 2 11l180 401q8 18 47 19q39 0 63 -15q12 -8 29 -32.5t17 -45.5q-1 -10 -7 -18l-270 -342q-8 -10 -22 -10q-39 0 -39 32z" />
<glyph unicode="&#xa1;" horiz-adv-x="643" d="M10 1159q-4 123 73 207t212 84q137 0 215 -86q68 -76 78 -205h-62q-47 180 -221 180q-76 0 -146.5 -53t-86.5 -127h-62zM82 797v37q109 20 321 98v-684q0 -104 32 -148.5t63 -44.5q12 0 32 6q39 10 58 60q8 33 16 65h35q-41 -231 -219 -219q-82 6 -133 70q-41 51 -41 100 v443q0 158 -60 200q-25 16 -104 17z" />
<glyph unicode="&#xa2;" horiz-adv-x="1044" d="M12 659q16 49 31 97q23 66 47.5 103.5t71.5 57t86 15.5q51 -6 91 -41t46 -72q35 -219 35 -500q0 -131 76 -215q55 -61 108 -61q37 0 80 23q70 39 114 159.5t44 261.5q0 72 -13 138q-23 123 -92 198q-33 39 -108 84l10 33q205 -78 289 -217q63 -106 63 -270 q0 -147 -55 -263q-70 -145 -213 -196q-74 -27 -150 -27q-61 0 -112 19q-72 25 -134.5 112.5t-64.5 235.5q-2 117 -4 235q-4 137 -22 183q-16 39 -58 39q-29 0 -59 -23q-18 -12 -66 -109h-41zM170 1417q0 111 111 111q70 0 110 -62q35 -50 35 -118q0 -72 -68.5 -158 t-140.5 -113l-16 37q47 23 99 84.5t52 108.5q0 27 -26 26q-4 0 -60 -6q-96 10 -96 90zM514 1466q0 20 17.5 46t29.5 34q23 14 64 15q37 0 45 -19l182 -401q2 -4 2 -11q0 -20 -25 -30t-38 8l-271 342q-6 6 -6 16z" />
<glyph unicode="&#xa3;" horiz-adv-x="964" d="M111 918q0 88 94 88q47 0 138 -34t140 -36q6 106 -57 281q-16 45 -16 77q0 90 96 90t96 -90q0 -33 -16 -77q-63 -174 -58 -281q47 2 138.5 36t140.5 34q94 0 94 -88t-94 -89q-47 0 -138 34t-141 36q-8 -262 84 -375q-86 -272 -86 -643v-186h-43v186q0 371 -86 643 q57 74 74 185q8 41 12 190q-47 -2 -138 -36t-140 -34q-94 0 -94 89z" />
<glyph unicode="&#xa4;" horiz-adv-x="948" d="M63 446q0 195 123 340q117 139 299 140q129 0 244 -80q199 -137 199 -393q0 -225 -162 -381q-111 -106 -270 -107q-104 0 -203 49q-229 158 -230 432zM78 1348q0 68 35 118q41 61 110 62q111 0 111 -111q0 -80 -96 -90q-55 6 -60 6q-27 0 -26 -26q0 -47 55 -111 q49 -59 96 -82l-16 -37q-72 27 -137 111q-72 88 -72 160zM242 510q0 -195 80 -338q74 -131 202 -131q98 0 163 97t65 290q0 227 -101 348q-78 94 -176 94q-61 0 -114.5 -37.5t-77.5 -93.5q-41 -96 -41 -229zM487 1466q0 20 17.5 46t30.5 34q23 14 63 15q37 0 45 -19 l182 -401q2 -4 2 -11q0 -20 -24 -30q-25 -10 -39 8l-270 342q-6 6 -7 16z" />
<glyph unicode="&#xa5;" horiz-adv-x="1044" d="M12 659q16 49 31 97q23 66 47.5 103.5t71.5 57t86 15.5q51 -6 91 -41t46 -72q35 -219 35 -500q0 -131 76 -215q55 -61 108 -61q37 0 80 23q70 39 114 159.5t44 261.5q0 72 -13 138q-23 123 -92 198q-33 39 -108 84l10 33q205 -78 289 -217q63 -106 63 -270 q0 -147 -55 -263q-70 -145 -213 -196q-74 -27 -150 -27q-61 0 -112 19q-72 25 -134.5 112.5t-64.5 235.5q-2 117 -4 235q-4 137 -22 183q-16 39 -58 39q-29 0 -59 -23q-18 -12 -66 -109h-41zM387 1130q0 6 2 11l182 401q8 18 45 19q39 0 64 -15q12 -8 29 -30q18 -29 18 -50 q0 -10 -6 -16l-270 -342q-8 -10 -23 -10q-41 0 -41 32z" />
<glyph unicode="&#xa7;" horiz-adv-x="1024" d="M147 580q0 125 76 191.5t201 55.5q-104 90 -143 146q-55 76 -56 164q0 119 88 186q82 61 203 61q100 0 174 -51q82 -59 82 -155q0 -102 -110 -103q-39 0 -64 26.5t-25 65.5q0 45 72 117q-57 57 -133 57q-72 0 -119 -36q-53 -41 -53 -111q0 -88 88 -160l244 -198 q200 -164 200 -328q0 -123 -74.5 -192.5t-195.5 -59.5q96 -86 131 -133q57 -80 58 -178q0 -135 -134 -213q-86 -35 -163 -35q-111 0 -191 55q-90 63 -90 146q0 43 26.5 82.5t63.5 39.5q119 0 119 -102q0 -29 -33 -65l-39 -43q8 -27 57.5 -48.5t96.5 -21.5q72 0 122 41 t50 113q0 104 -137 212q-127 96 -254 193q-137 129 -138 281zM250 641q0 -90 135 -209q152 -133 231 -133q70 0 110 41t40 111q0 72 -142.5 203.5t-230.5 131.5q-61 0 -102 -42t-41 -103z" />
<glyph unicode="&#xa8;" horiz-adv-x="641" d="M37 1174q0 39 30.5 70.5t69.5 31.5q41 0 72 -30.5t31 -71.5t-31 -72t-72 -31q-39 0 -69.5 31t-30.5 72zM444 1174q0 39 31 70.5t70 31.5q41 0 71.5 -30.5t30.5 -71.5t-30.5 -72t-71.5 -31q-39 0 -70 31t-31 72z" />
<glyph unicode="&#xa9;" horiz-adv-x="1236" d="M80 399q0 41 4 95q23 238 195 368q61 47 147 60q8 0 125 4v-31q-150 -57 -203 -143q-80 -133 -80 -330q0 -86 15 -168q23 -117 75 -168q37 -35 84 -35q20 0 45 6q78 23 113 111q14 57 29 113q-53 150 -54 260q0 49 9 100q23 125 88 125q70 0 90 -125q8 -49 8 -96 q0 -109 -53 -264q14 -55 28 -113q35 -88 113 -111q25 -6 45 -6q47 0 84 35q51 51 74 168q16 86 16 172q0 195 -80 326q-53 86 -202 143v31q117 -4 125 -4q86 -12 147 -60q172 -130 195 -368q4 -49 4 -91q0 -115 -45 -225q-55 -133 -166 -184q-55 -27 -117 -27q-66 0 -121 33 q-84 49 -145 152q-59 -102 -144 -152q-55 -33 -120 -33q-59 0 -117 27q-113 53 -168 184q-43 106 -43 221zM289 1159q-6 123 87 207t255 84q164 0 256 -86q82 -76 94 -205h-74q-53 180 -264 180q-90 0 -175 -53t-106 -127h-73z" />
<glyph unicode="&#xaa;" horiz-adv-x="1044" d="M12 659q16 49 31 97q23 66 47.5 103.5t71.5 57t86 15.5q51 -6 91 -41t46 -72q35 -219 35 -500q0 -131 76 -215q55 -61 108 -61q37 0 80 23q70 39 114 159.5t44 261.5q0 72 -13 138q-23 123 -92 198q-33 39 -108 84l10 33q205 -78 289 -217q63 -106 63 -270 q0 -147 -55 -263q-70 -145 -213 -196q-74 -27 -150 -27q-61 0 -112 19q-72 25 -134.5 112.5t-64.5 235.5q-2 117 -4 235q-4 137 -22 183q-16 39 -58 39q-29 0 -59 -23q-18 -12 -66 -109h-41zM406 1417q0 111 110 111q70 0 113 -62q35 -50 35 -118q0 -72 -69 -158t-140 -113 l-17 37q47 23 99.5 84.5t52.5 108.5q0 27 -27 26q-4 0 -59 -6q-98 12 -98 90z" />
<glyph unicode="&#xab;" horiz-adv-x="1044" d="M12 659q16 49 31 97q23 66 47.5 103.5t71.5 57t86 15.5q51 -6 91 -41t46 -72q35 -219 35 -500q0 -131 76 -215q55 -61 108 -61q37 0 80 23q70 39 114 159.5t44 261.5q0 72 -13 138q-23 123 -92 198q-33 39 -108 84l10 33q205 -78 289 -217q63 -106 63 -270 q0 -147 -55 -263q-70 -145 -213 -196q-74 -27 -150 -27q-61 0 -112 19q-72 25 -134.5 112.5t-64.5 235.5q-2 117 -4 235q-4 137 -22 183q-16 39 -58 39q-29 0 -59 -23q-18 -12 -66 -109h-41zM170 1475q-6 123 79 205.5t232 82.5q152 0 236 -86q76 -75 88 -202h-68 q-53 178 -243 178q-84 0 -161 -52.5t-95 -125.5h-68zM406 1352q0 111 110 110q70 0 113 -61q35 -51 35 -119q0 -72 -69 -158t-140 -112l-17 37q47 23 99.5 84t52.5 108q0 27 -27 27q-4 0 -59 -6q-98 8 -98 90z" />
<glyph unicode="&#xac;" horiz-adv-x="643" d="M59 1417q0 111 111 111q70 0 111 -62q34 -50 34 -118q0 -72 -68.5 -158t-140.5 -113l-16 37q47 23 99.5 84.5t52.5 108.5q0 27 -27 26q-4 0 -59 -6q-96 10 -97 90zM82 797v37q109 20 321 98v-684q0 -104 32 -148.5t63 -44.5q12 0 32 6q39 10 58 60q8 33 16 65h35 q-41 -231 -219 -219q-82 6 -133 70q-41 51 -41 100v443q0 158 -60 200q-25 16 -104 17zM397 1130q0 4 2 11l181 401q8 18 47 19q39 0 63 -15q12 -8 28.5 -32.5t16.5 -45.5q0 -10 -6 -18l-270 -342q-8 -10 -23 -10q-39 0 -39 32z" />
<glyph unicode="&#xad;" horiz-adv-x="681" d="M88 397v129h504v-129h-504z" />
<glyph unicode="&#xae;" horiz-adv-x="829" d="M100 231q0 35 11 68q37 119 196 168q-80 37 -110 59q-37 29 -56 74q-14 35 -14 72q0 100 96 176q104 82 283 82q96 0 143 -19q88 -35 123 -86q20 -33 21 -63q0 -51 -45 -78q-14 -8 -39 -8q-76 0 -101 96q-23 90 -133 90q-39 0 -76 -16q-102 -47 -102 -176q0 -23 2 -37 q29 -143 195 -127l100 10q80 8 80 -41q0 -25 -37 -43q-43 -23 -123 -8q-27 4 -51 4q-168 0 -168 -180q0 -68 29 -105q72 -96 239 -96q63 0 109 14q92 29 133 150l47 -12q-4 -154 -195 -209q-88 -25 -176 -25q-156 0 -272 72q-109 68 -109 194zM375 1417q0 111 110 111 q70 0 111 -62q35 -50 35 -118q0 -72 -68.5 -158t-140.5 -113l-16 37q47 23 99 84.5t52 108.5q0 27 -27 26q-4 0 -59 -6q-96 10 -96 90z" />
<glyph unicode="&#xb0;" horiz-adv-x="817" d="M102 1094q0 127 90.5 217t217.5 90t217 -90t90 -217q0 -125 -90 -215.5t-217 -90.5t-217.5 89.5t-90.5 216.5zM184 1094q0 -94 65.5 -159t160.5 -65q92 0 158.5 66t66.5 158t-66.5 158.5t-160.5 66.5q-92 0 -158 -66.5t-66 -158.5z" />
<glyph unicode="&#xb1;" horiz-adv-x="626" d="M-53 1294q-6 123 79 207t232 84q152 0 236 -86q76 -76 88 -205h-68q-53 180 -244 181q-84 0 -160.5 -53.5t-95.5 -127.5h-67zM127 1085q0 68 35 119q41 61 110 62q111 0 111 -111q0 -80 -96 -90q-55 6 -60 6q-27 0 -26 -27q0 -45 55 -110q49 -59 96 -82l-16 -37 q-72 29 -137 111q-72 88 -72 159z" />
<glyph unicode="&#xb4;" horiz-adv-x="643" d="M139 1130q0 6 2 11l183 401q8 18 45 19q39 0 63 -15q12 -8 29 -30q18 -29 18 -50q0 -10 -6 -16l-270 -342q-8 -10 -23 -10q-41 0 -41 32z" />
<glyph unicode="&#xb5;" horiz-adv-x="643" d="M18 1475q-6 123 79 205.5t233 82.5q152 0 235 -86q76 -75 88 -202h-67q-53 178 -244 178q-84 0 -161 -52.5t-95 -125.5h-68zM82 797v37q109 20 321 98v-684q0 -104 32 -148.5t63 -44.5q12 0 32 6q39 10 58 60q8 33 16 65h35q-41 -231 -219 -219q-82 6 -133 70 q-41 51 -41 100v443q0 158 -60 200q-25 16 -104 17zM236 1352q0 111 110 110q70 0 111 -61q35 -51 35 -119q0 -72 -69 -158t-140 -112l-17 37q47 23 99.5 84t52.5 108q0 27 -27 27q-4 0 -59 -6q-96 8 -96 90z" />
<glyph unicode="&#xb6;" horiz-adv-x="872" d="M0 936q0 135 90 258q119 162 330 162h344v-86h-86v-1694h-86v1694h-162v-1694h-86v899q-145 27 -240 139q-104 125 -104 322z" />
<glyph unicode="&#xb8;" horiz-adv-x="1042" d="M0 668q4 43 10 88t39 98q53 84 162 84q45 0 87 -23.5t60 -72.5q2 -4 25 -86q68 94 96 121q82 76 195 75q86 0 135 -37q113 -86 117 -229l20 -922q11 -47 31 -139h-166q-10 45 -25 187l-24 829q-4 104 -52 144t-116 40q-82 0 -141 -57q-37 -45 -72 -90v-678h-158v637 q0 119 -39 168q-27 33 -61 33q-27 0 -47.5 -22.5t-28.5 -65.5t-14 -82h-33zM373 1130q0 4 2 11l180 401q8 18 47 19q39 0 64 -15q12 -8 28.5 -32.5t16.5 -45.5q0 -10 -6 -18l-271 -342q-8 -10 -22 -10q-39 0 -39 32z" />
<glyph unicode="&#xba;" horiz-adv-x="643" d="M82 797v37q109 20 321 98v-684q0 -104 32 -148.5t63 -44.5q12 0 32 6q39 10 58 60q8 33 16 65h35q-41 -231 -219 -219q-82 6 -133 70q-41 51 -41 100v443q0 158 -60 200q-25 16 -104 17zM221 1130q0 4 2 11l180 401q8 18 48 19q39 0 63 -15q12 -8 28.5 -32.5t16.5 -45.5 q0 -10 -6 -18l-270 -342q-8 -10 -23 -10q-39 0 -39 32z" />
<glyph unicode="&#xbb;" horiz-adv-x="1044" d="M12 659q16 49 31 97q23 66 47.5 103.5t71.5 57t86 15.5q51 -6 91 -41t46 -72q35 -219 35 -500q0 -131 76 -215q55 -61 108 -61q37 0 80 23q70 39 114 159.5t44 261.5q0 72 -13 138q-23 123 -92 198q-33 39 -108 84l10 33q205 -78 289 -217q63 -106 63 -270 q0 -147 -55 -263q-70 -145 -213 -196q-74 -27 -150 -27q-61 0 -112 19q-72 25 -134.5 112.5t-64.5 235.5q-2 117 -4 235q-4 137 -22 183q-16 39 -58 39q-29 0 -59 -23q-18 -12 -66 -109h-41zM131 1475q-6 123 79 205.5t232 82.5q152 0 236 -86q76 -75 88 -202h-68 q-53 178 -243 178q-84 0 -161 -52.5t-95 -125.5h-68zM260 1282q0 68 35 119q41 61 111 61q110 1 110 -110q0 -82 -96 -90q-55 6 -60 6q-27 0 -26 -27q0 -47 55 -111q49 -59 96 -81l-16 -37q-72 27 -137 110q-72 88 -72 160z" />
<glyph unicode="&#xbf;" horiz-adv-x="1236" d="M80 399q0 41 4 95q23 238 195 368q61 47 147 60q8 0 125 4v-31q-150 -57 -203 -143q-80 -133 -80 -330q0 -86 15 -168q23 -117 75 -168q37 -35 84 -35q20 0 45 6q78 23 113 111q14 57 29 113q-53 150 -54 260q0 49 9 100q23 125 88 125q70 0 90 -125q8 -49 8 -96 q0 -109 -53 -264q14 -55 28 -113q35 -88 113 -111q25 -6 45 -6q47 0 84 35q51 51 74 168q16 86 16 172q0 195 -80 326q-53 86 -202 143v31q117 -4 125 -4q86 -12 147 -60q172 -130 195 -368q4 -49 4 -91q0 -115 -45 -225q-55 -133 -166 -184q-55 -27 -117 -27q-66 0 -121 33 q-84 49 -145 152q-59 -102 -144 -152q-55 -33 -120 -33q-59 0 -117 27q-113 53 -168 184q-43 106 -43 221zM367 1485q-6 123 78.5 206t232.5 83q152 0 235 -84q76 -76 88 -205h-67q-53 178 -244 178q-84 0 -160.5 -52t-95.5 -126h-67zM600 1360q0 111 111 110q70 0 110 -61 q35 -51 35 -119q0 -72 -68.5 -157.5t-140.5 -112.5l-16 37q47 23 99 84t52 108q0 27 -26 27q-4 0 -60 -6q-96 8 -96 90z" />
<glyph unicode="&#xc0;" horiz-adv-x="1236" d="M80 399q0 41 4 95q23 238 195 368q61 47 147 60q8 0 125 4v-31q-150 -57 -203 -143q-80 -133 -80 -330q0 -86 15 -168q23 -117 75 -168q37 -35 84 -35q20 0 45 6q78 23 113 111q14 57 29 113q-53 150 -54 260q0 49 9 100q23 125 88 125q70 0 90 -125q8 -49 8 -96 q0 -109 -53 -264q14 -55 28 -113q35 -88 113 -111q25 -6 45 -6q47 0 84 35q51 51 74 168q16 86 16 172q0 195 -80 326q-53 86 -202 143v31q117 -4 125 -4q86 -12 147 -60q172 -130 195 -368q4 -49 4 -91q0 -115 -45 -225q-55 -133 -166 -184q-55 -27 -117 -27q-66 0 -121 33 q-84 49 -145 152q-59 -102 -144 -152q-55 -33 -120 -33q-59 0 -117 27q-113 53 -168 184q-43 106 -43 221zM449 1348q0 68 34 118q41 61 111 62q111 0 111 -111q0 -80 -99 -90q-55 6 -57 6q-27 0 -27 -26q0 -47 56 -111q49 -59 96 -82l-17 -37q-72 27 -137 111 q-72 88 -71 160zM553 -358q0 35 12 84q23 98 62 182h90q-29 -49 -53 -141q-8 -33 -9 -60q0 -82 76 -72q37 -2 64 17q6 4 43 41l-23 -162q-63 -41 -121 -41q-41 0 -73 21q-68 43 -68 131z" />
<glyph unicode="&#xc1;" horiz-adv-x="643" d="M55 1466q0 20 17.5 46t29.5 34q23 14 64 15q37 0 45 -19l182 -401q2 -4 2 -11q0 -20 -24 -30q-25 -10 -39 8l-271 342q-6 6 -6 16zM82 797v37q109 20 321 98v-684q0 -104 32 -148.5t63 -44.5q12 0 32 6q39 10 58 60q8 33 16 65h35q-41 -231 -219 -219q-82 6 -133 70 q-41 51 -41 100v443q0 158 -60 200q-25 16 -104 17z" />
<glyph unicode="&#xc2;" horiz-adv-x="1044" d="M12 659q16 49 31 97q23 66 47.5 103.5t71.5 57t86 15.5q51 -6 91 -41t46 -72q35 -219 35 -500q0 -131 76 -215q55 -61 108 -61q37 0 80 23q70 39 114 159.5t44 261.5q0 72 -13 138q-23 123 -92 198q-33 39 -108 84l10 33q205 -78 289 -217q63 -106 63 -270 q0 -147 -55 -263q-70 -145 -213 -196q-74 -27 -150 -27q-61 0 -112 19q-72 25 -134.5 112.5t-64.5 235.5q-2 117 -4 235q-4 137 -22 183q-16 39 -58 39q-29 0 -59 -23q-18 -12 -66 -109h-41zM215 1466q0 20 17.5 46t29.5 34q23 14 64 15q37 0 45 -19l182 -401q2 -4 2 -11 q0 -20 -25 -30t-38 8l-271 342q-6 6 -6 16z" />
<glyph unicode="&#xc3;" horiz-adv-x="1236" d="M80 399q0 41 4 95q23 238 195 368q61 47 147 60q8 0 125 4v-31q-150 -57 -203 -143q-80 -133 -80 -330q0 -86 15 -168q23 -117 75 -168q37 -35 84 -35q20 0 45 6q78 23 113 111q14 57 29 113q-53 150 -54 260q0 49 9 100q23 125 88 125q70 0 90 -125q8 -49 8 -96 q0 -109 -53 -264q14 -55 28 -113q35 -88 113 -111q25 -6 45 -6q47 0 84 35q51 51 74 168q16 86 16 172q0 195 -80 326q-53 86 -202 143v31q117 -4 125 -4q86 -12 147 -60q172 -130 195 -368q4 -49 4 -91q0 -115 -45 -225q-55 -133 -166 -184q-55 -27 -117 -27q-66 0 -121 33 q-84 49 -145 152q-59 -102 -144 -152q-55 -33 -120 -33q-59 0 -117 27q-113 53 -168 184q-43 106 -43 221zM416 1417q0 111 110 111q70 0 111 -62q35 -50 35 -118q0 -72 -68.5 -158t-140.5 -113l-17 37q47 23 99.5 84.5t52.5 108.5q0 27 -27 26q-4 0 -59 -6q-96 10 -96 90z M553 -358q0 35 12 84q23 98 62 182h90q-29 -49 -53 -141q-8 -33 -9 -60q0 -82 76 -72q37 -2 64 17q6 4 43 41l-23 -162q-63 -41 -121 -41q-41 0 -73 21q-68 43 -68 131zM752 1130q0 4 2 11l180 401q8 18 47 19q39 0 63 -15q12 -8 29 -32.5t17 -45.5q-1 -10 -7 -18l-270 -342 q-8 -10 -22 -10q-39 0 -39 32z" />
<glyph unicode="&#xc4;" d="M76 420q0 63 10 135q29 205 201 322q76 51 194 51q137 0 226 -113q74 -94 98 -242l119 330h163l-213 -588q20 -121 76 -174q37 -35 68 -35t57 27q35 35 43 123h35l-4 -111q-4 -94 -70 -147q-31 -25 -59 -25q-33 0 -66 31q-53 51 -118 227q-68 -117 -68 -118 q-66 -84 -170 -117q-86 -27 -147 -27q-74 0 -150 33q-102 45 -158 139q-68 115 -67 279zM274 553q-18 -145 13 -309q18 -102 71.5 -155.5t116.5 -57.5q49 -4 112.5 49t110.5 182l56 152q-31 233 -82 315q-55 90 -133 113q-43 12 -74 12q-57 0 -109 -63q-61 -78 -82 -238z M457 -399q0 35 12 84q23 98 61 182h91q-29 -49 -54 -141q-8 -33 -8 -60q0 -82 74 -72q39 -2 65 17q6 4 43 41l-22 -162q-63 -41 -121 -41q-41 0 -74 21q-68 43 -67 131zM508 1130q0 4 2 11l180 401q8 18 47 19q39 0 64 -15q12 -8 28.5 -32.5t16.5 -45.5q0 -10 -6 -18 l-271 -342q-8 -10 -22 -10q-39 0 -39 32z" />
<glyph unicode="&#xc5;" d="M76 420q0 63 10 135q29 205 201 322q76 51 194 51q137 0 226 -113q74 -94 98 -242l119 330h163l-213 -588q20 -121 76 -174q37 -35 68 -35t57 27q35 35 43 123h35l-4 -111q-4 -94 -70 -147q-31 -25 -59 -25q-33 0 -66 31q-53 51 -118 227q-68 -117 -68 -118 q-66 -84 -170 -117q-86 -27 -147 -27q-74 0 -150 33q-102 45 -158 139q-68 115 -67 279zM274 553q-18 -145 13 -309q18 -102 71.5 -155.5t116.5 -57.5q49 -4 112.5 49t110.5 182l56 152q-31 233 -82 315q-55 90 -133 113q-43 12 -74 12q-57 0 -109 -63q-61 -78 -82 -238z M332 1466q0 20 18 50q16 23 29 30q25 14 63 15q37 0 45 -19l183 -401q2 -4 2 -11q0 -20 -25 -30t-39 8l-270 342q-6 6 -6 16z" />
<glyph unicode="&#xc6;" horiz-adv-x="1236" d="M80 399q0 41 4 95q23 238 195 368q61 47 147 60q8 0 125 4v-31q-150 -57 -203 -143q-80 -133 -80 -330q0 -86 15 -168q23 -117 75 -168q37 -35 84 -35q20 0 45 6q78 23 113 111q14 57 29 113q-53 150 -54 260q0 49 9 100q23 125 88 125q70 0 90 -125q8 -49 8 -96 q0 -109 -53 -264q14 -55 28 -113q35 -88 113 -111q25 -6 45 -6q47 0 84 35q51 51 74 168q16 86 16 172q0 195 -80 326q-53 86 -202 143v31q117 -4 125 -4q86 -12 147 -60q172 -130 195 -368q4 -49 4 -91q0 -115 -45 -225q-55 -133 -166 -184q-55 -27 -117 -27q-66 0 -121 33 q-84 49 -145 152q-59 -102 -144 -152q-55 -33 -120 -33q-59 0 -117 27q-113 53 -168 184q-43 106 -43 221zM276 1348q0 68 35 118q41 61 111 62q110 0 110 -111q0 -80 -98 -90q-55 6 -57 6q-27 0 -27 -26q0 -47 56 -111q49 -59 96 -82l-17 -37q-72 27 -137 111 q-72 88 -72 160zM682 1466q0 20 17.5 46t29.5 34q23 14 64 15q37 0 45 -19l182 -401q2 -4 2 -11q0 -20 -25 -30t-39 8l-270 342q-6 6 -6 16z" />
<glyph unicode="&#xc7;" horiz-adv-x="643" d="M-100 1151q0 35 25.5 61.5t62.5 26.5t62.5 -25.5t25.5 -62.5q0 -88 -88 -88q-37 0 -62.5 26.5t-25.5 61.5zM82 797v37q109 20 321 98v-684q0 -104 32 -148.5t63 -44.5q12 0 32 6q39 10 58 60q8 33 16 65h35q-41 -231 -219 -219q-82 6 -133 70q-41 51 -41 100v443 q0 158 -60 200q-25 16 -104 17zM262 1335q0 4 2 11l180 401q8 18 48 18q39 0 63 -14q12 -8 28.5 -32.5t16.5 -45.5q0 -10 -6 -18l-270 -342q-8 -10 -23 -10q-39 0 -39 32zM381 1151q0 35 25.5 61.5t62.5 26.5t62.5 -25.5t25.5 -62.5q0 -88 -88 -88q-37 0 -62.5 26.5 t-25.5 61.5z" />
<glyph unicode="&#xc8;" d="M76 420q0 63 10 135q29 205 201 322q76 51 194 51q137 0 226 -113q74 -94 98 -242l119 330h163l-213 -588q20 -121 76 -174q37 -35 68 -35t57 27q35 35 43 123h35l-4 -111q-4 -94 -70 -147q-31 -25 -59 -25q-33 0 -66 31q-53 51 -118 227q-68 -117 -68 -118 q-66 -84 -170 -117q-86 -27 -147 -27q-74 0 -150 33q-102 45 -158 139q-68 115 -67 279zM145 1159q-4 123 88.5 207t253.5 84q164 0 256 -86q83 -76 95 -205h-72q-57 180 -266 180q-90 0 -175 -53t-106 -127h-74zM274 553q-18 -145 13 -309q18 -102 71.5 -155.5t116.5 -57.5 q49 -4 112.5 49t110.5 182l56 152q-31 233 -82 315q-55 90 -133 113q-43 12 -74 12q-57 0 -109 -63q-61 -78 -82 -238zM457 -399q0 35 12 84q23 98 61 182h91q-29 -49 -54 -141q-8 -33 -8 -60q0 -82 74 -72q39 -2 65 17q6 4 43 41l-22 -162q-63 -41 -121 -41q-41 0 -74 21 q-68 43 -67 131z" />
<glyph unicode="&#xc9;" d="M76 420q0 63 10 135q29 205 201 322q76 51 194 51q137 0 226 -113q74 -94 98 -242l119 330h163l-213 -588q20 -121 76 -174q37 -35 68 -35t57 27q35 35 43 123h35l-4 -111q-4 -94 -70 -147q-31 -25 -59 -25q-33 0 -66 31q-53 51 -118 227q-68 -117 -68 -118 q-66 -84 -170 -117q-86 -27 -147 -27q-74 0 -150 33q-102 45 -158 139q-68 115 -67 279zM274 553q-18 -145 13 -309q18 -102 71.5 -155.5t116.5 -57.5q49 -4 112.5 49t110.5 182l56 152q-31 233 -82 315q-55 90 -133 113q-43 12 -74 12q-57 0 -109 -63q-61 -78 -82 -238z M332 1466q0 20 18 50q16 23 29 30q25 14 63 15q37 0 45 -19l183 -401q2 -4 2 -11q0 -20 -25 -30t-39 8l-270 342q-6 6 -6 16zM457 -399q0 35 12 84q23 98 61 182h91q-29 -49 -54 -141q-8 -33 -8 -60q0 -82 74 -72q39 -2 65 17q6 4 43 41l-22 -162q-63 -41 -121 -41 q-41 0 -74 21q-68 43 -67 131z" />
<glyph unicode="&#xca;" horiz-adv-x="1044" d="M12 659q16 49 31 97q23 66 47.5 103.5t71.5 57t86 15.5q51 -6 91 -41t46 -72q35 -219 35 -500q0 -131 76 -215q55 -61 108 -61q37 0 80 23q70 39 114 159.5t44 261.5q0 72 -13 138q-23 123 -92 198q-33 39 -108 84l10 33q205 -78 289 -217q63 -106 63 -270 q0 -147 -55 -263q-70 -145 -213 -196q-74 -27 -150 -27q-61 0 -112 19q-72 25 -134.5 112.5t-64.5 235.5q-2 117 -4 235q-4 137 -22 183q-16 39 -58 39q-29 0 -59 -23q-18 -12 -66 -109h-41zM258 1348q0 68 35 118q41 61 110 62q111 0 111 -111q0 -80 -96 -90q-55 6 -60 6 q-27 0 -26 -26q0 -47 55 -111q49 -59 96 -82l-16 -37q-72 27 -137 111q-72 88 -72 160z" />
<glyph unicode="&#xcb;" horiz-adv-x="1044" d="M12 659q16 49 31 97q23 66 47.5 103.5t71.5 57t86 15.5q51 -6 91 -41t46 -72q35 -219 35 -500q0 -131 76 -215q55 -61 108 -61q37 0 80 23q70 39 114 159.5t44 261.5q0 72 -13 138q-23 123 -92 198q-33 39 -108 84l10 33q205 -78 289 -217q63 -106 63 -270 q0 -147 -55 -263q-70 -145 -213 -196q-74 -27 -150 -27q-61 0 -112 19q-72 25 -134.5 112.5t-64.5 235.5q-2 117 -4 235q-4 137 -22 183q-16 39 -58 39q-29 0 -59 -23q-18 -12 -66 -109h-41zM78 1348q0 68 35 118q41 61 110 62q111 0 111 -111q0 -80 -96 -90q-55 6 -60 6 q-27 0 -26 -26q0 -47 55 -111q49 -59 96 -82l-16 -37q-72 27 -137 111q-72 88 -72 160zM494 1466q0 20 18 50q16 23 29 30q25 14 63 15q37 0 45 -19l182 -401q2 -4 3 -11q0 -20 -25 -30t-39 8l-270 342q-6 6 -6 16z" />
<glyph unicode="&#xcc;" horiz-adv-x="1042" d="M0 668q4 43 10 88t39 98q53 84 162 84q45 0 87 -23.5t60 -72.5q2 -4 25 -86q68 94 96 121q82 76 195 75q86 0 135 -37q113 -86 117 -229l20 -922q11 -47 31 -139h-166q-10 45 -25 187l-24 829q-4 104 -52 144t-116 40q-82 0 -141 -57q-37 -45 -72 -90v-678h-158v637 q0 119 -39 168q-27 33 -61 33q-27 0 -47.5 -22.5t-28.5 -65.5t-14 -82h-33zM158 1348q0 68 35 118q41 61 110 62q111 0 111 -111q0 -80 -97 -90q-55 6 -59 6q-27 0 -27 -26q0 -47 56 -111q49 -59 96 -82l-16 -37q-72 27 -138 111q-72 88 -71 160zM578 1130q0 4 2 11l180 401 q8 18 47 19q39 0 63 -15q12 -8 28.5 -32.5t16.5 -45.5q0 -10 -6 -18l-270 -342q-8 -10 -23 -10q-39 0 -38 32z" />
<glyph unicode="&#xcd;" d="M76 420q0 63 10 135q29 205 201 322q76 51 194 51q137 0 226 -113q74 -94 98 -242l119 330h163l-213 -588q20 -121 76 -174q37 -35 68 -35t57 27q35 35 43 123h35l-4 -111q-4 -94 -70 -147q-31 -25 -59 -25q-33 0 -66 31q-53 51 -118 227q-68 -117 -68 -118 q-66 -84 -170 -117q-86 -27 -147 -27q-74 0 -150 33q-102 45 -158 139q-68 115 -67 279zM254 1475q-6 123 79 205.5t232 82.5q152 0 236 -86q76 -75 88 -202h-68q-53 178 -243 178q-84 0 -161 -52.5t-95 -125.5h-68zM274 553q-18 -145 13 -309q18 -102 71.5 -155.5 t116.5 -57.5q49 -4 112.5 49t110.5 182l56 152q-31 233 -82 315q-55 90 -133 113q-43 12 -74 12q-57 0 -109 -63q-61 -78 -82 -238zM373 1282q0 68 35 119q41 61 110 61q111 1 111 -110q0 -82 -97 -90q-55 6 -59 6q-27 0 -27 -27q0 -47 56 -111q49 -59 96 -81l-16 -37 q-72 27 -138 110q-72 88 -71 160z" />
<glyph unicode="&#xce;" horiz-adv-x="1042" d="M0 668q4 43 10 88t39 98q53 84 162 84q45 0 87 -23.5t60 -72.5q2 -4 25 -86q68 94 96 121q82 76 195 75q86 0 135 -37q113 -86 117 -229l20 -922q11 -47 31 -139h-166q-10 45 -25 187l-24 829q-4 104 -52 144t-116 40q-82 0 -141 -57q-37 -45 -72 -90v-678h-158v637 q0 119 -39 168q-27 33 -61 33q-27 0 -47.5 -22.5t-28.5 -65.5t-14 -82h-33zM145 1159q-4 123 88.5 207t253.5 84q164 0 256 -86q83 -76 95 -205h-72q-57 180 -266 180q-90 0 -175 -53t-106 -127h-74zM242 -379q0 35 12 84q23 98 61 182h91q-29 -49 -54 -141q-8 -33 -8 -59 q0 -82 76 -72q49 -4 106 57l-22 -161q-61 -41 -119 -41q-43 0 -76 20q-68 43 -67 131z" />
<glyph unicode="&#xcf;" horiz-adv-x="1042" d="M0 668q4 43 10 88t39 98q53 84 162 84q45 0 87 -23.5t60 -72.5q2 -4 25 -86q68 94 96 121q82 76 195 75q86 0 135 -37q113 -86 117 -229l20 -922q11 -47 31 -139h-166q-10 45 -25 187l-24 829q-4 104 -52 144t-116 40q-82 0 -141 -57q-37 -45 -72 -90v-678h-158v637 q0 119 -39 168q-27 33 -61 33q-27 0 -47.5 -22.5t-28.5 -65.5t-14 -82h-33zM117 1475q-6 123 79 205.5t232 82.5q152 0 236 -86q76 -75 88 -202h-68q-53 178 -244 178q-84 0 -160.5 -52.5t-95.5 -125.5h-67zM246 1282q0 68 35 119q41 61 110 61q111 1 111 -110 q0 -82 -96 -90q-55 6 -60 6q-27 0 -27 -27q0 -47 56 -111q49 -59 96 -81l-16 -37q-72 27 -138 110q-72 88 -71 160z" />
<glyph unicode="&#xd1;" d="M76 420q0 63 10 135q29 205 201 322q76 51 194 51q137 0 226 -113q74 -94 98 -242l119 330h163l-213 -588q20 -121 76 -174q37 -35 68 -35t57 27q35 35 43 123h35l-4 -111q-4 -94 -70 -147q-31 -25 -59 -25q-33 0 -66 31q-53 51 -118 227q-68 -117 -68 -118 q-66 -84 -170 -117q-86 -27 -147 -27q-74 0 -150 33q-102 45 -158 139q-68 115 -67 279zM274 553q-18 -145 13 -309q18 -102 71.5 -155.5t116.5 -57.5q49 -4 112.5 49t110.5 182l56 152q-31 233 -82 315q-55 90 -133 113q-43 12 -74 12q-57 0 -109 -63q-61 -78 -82 -238z M457 -399q0 35 12 84q23 98 61 182h91q-29 -49 -54 -141q-8 -33 -8 -60q0 -82 74 -72q39 -2 65 17q6 4 43 41l-22 -162q-63 -41 -121 -41q-41 0 -74 21q-68 43 -67 131zM516 1417q0 111 109 111q70 0 112 -62q35 -50 35 -118q0 -72 -68.5 -158t-140.5 -113l-16 37 q47 23 99 84.5t52 108.5q0 27 -26 26q-4 0 -60 -6q-96 10 -96 90z" />
<glyph unicode="&#xd2;" horiz-adv-x="643" d="M-37 1348q0 68 35 118q41 61 111 62q110 0 110 -111q0 -80 -96 -90q-55 6 -60 6q-27 0 -26 -26q0 -47 55 -111q49 -59 96 -82l-16 -37q-72 27 -137 111q-72 88 -72 160zM82 797v37q109 20 321 98v-684q0 -104 32 -148.5t63 -44.5q12 0 32 6q39 10 58 60q8 33 16 65h35 q-41 -231 -219 -219q-82 6 -133 70q-41 51 -41 100v443q0 158 -60 200q-25 16 -104 17zM393 1130q0 4 2 11l180 401q8 18 48 19q39 0 63 -15q12 -8 28.5 -32.5t16.5 -45.5q0 -10 -6 -18l-270 -342q-8 -10 -23 -10q-39 0 -39 32z" />
<glyph unicode="&#xd3;" horiz-adv-x="1042" d="M0 668q4 43 10 88t39 98q53 84 162 84q45 0 87 -23.5t60 -72.5q2 -4 25 -86q68 94 96 121q82 76 195 75q86 0 135 -37q113 -86 117 -229l20 -922q11 -47 31 -139h-166q-10 45 -25 187l-24 829q-4 104 -52 144t-116 40q-82 0 -141 -57q-37 -45 -72 -90v-678h-158v637 q0 119 -39 168q-27 33 -61 33q-27 0 -47.5 -22.5t-28.5 -65.5t-14 -82h-33zM209 1466q0 20 18 50q16 23 29 30q25 14 63 15q37 0 46 -19l182 -401q2 -4 2 -11q0 -20 -25 -30t-39 8l-270 342q-6 6 -6 16z" />
<glyph unicode="&#xd4;" horiz-adv-x="1042" d="M0 668q4 43 10 88t39 98q53 84 162 84q45 0 87 -23.5t60 -72.5q2 -4 25 -86q68 94 96 121q82 76 195 75q86 0 135 -37q113 -86 117 -229l20 -922q11 -47 31 -139h-166q-10 45 -25 187l-24 829q-4 104 -52 144t-116 40q-82 0 -141 -57q-37 -45 -72 -90v-678h-158v637 q0 119 -39 168q-27 33 -61 33q-27 0 -47.5 -22.5t-28.5 -65.5t-14 -82h-33zM252 1348q0 68 35 118q41 61 110 62q111 0 111 -111q0 -80 -98 -90q-55 6 -58 6q-27 0 -26 -26q0 -47 55 -111q49 -59 96 -82l-16 -37q-72 27 -137 111q-72 88 -72 160z" />
<glyph unicode="&#xd5;" horiz-adv-x="1236" d="M80 399q0 41 4 95q23 238 195 368q61 47 147 60q8 0 125 4v-31q-150 -57 -203 -143q-80 -133 -80 -330q0 -86 15 -168q23 -117 75 -168q37 -35 84 -35q20 0 45 6q78 23 113 111q14 57 29 113q-53 150 -54 260q0 49 9 100q23 125 88 125q70 0 90 -125q8 -49 8 -96 q0 -109 -53 -264q14 -55 28 -113q35 -88 113 -111q25 -6 45 -6q47 0 84 35q51 51 74 168q16 86 16 172q0 195 -80 326q-53 86 -202 143v31q117 -4 125 -4q86 -12 147 -60q172 -130 195 -368q4 -49 4 -91q0 -115 -45 -225q-55 -133 -166 -184q-55 -27 -117 -27q-66 0 -121 33 q-84 49 -145 152q-59 -102 -144 -152q-55 -33 -120 -33q-59 0 -117 27q-113 53 -168 184q-43 106 -43 221zM289 1348q0 68 35 118q41 61 110 62q111 0 111 -111q0 -80 -99 -90q-55 6 -57 6q-27 0 -27 -26q0 -47 56 -111q49 -59 96 -82l-16 -37q-72 27 -138 111 q-72 88 -71 160zM553 -358q0 35 12 84q23 98 62 182h90q-29 -49 -53 -141q-8 -33 -9 -60q0 -82 76 -72q37 -2 64 17q6 4 43 41l-23 -162q-63 -41 -121 -41q-41 0 -73 21q-68 43 -68 131zM752 1130q0 4 2 11l180 401q8 18 47 19q39 0 63 -15q12 -8 29 -32.5t17 -45.5 q-1 -10 -7 -18l-270 -342q-8 -10 -22 -10q-39 0 -39 32z" />
<glyph unicode="&#xd6;" d="M76 420q0 63 10 135q29 205 201 322q76 51 194 51q137 0 226 -113q74 -94 98 -242l119 330h163l-213 -588q20 -121 76 -174q37 -35 68 -35t57 27q35 35 43 123h35l-4 -111q-4 -94 -70 -147q-31 -25 -59 -25q-33 0 -66 31q-53 51 -118 227q-68 -117 -68 -118 q-66 -84 -170 -117q-86 -27 -147 -27q-74 0 -150 33q-102 45 -158 139q-68 115 -67 279zM274 553q-18 -145 13 -309q18 -102 71.5 -155.5t116.5 -57.5q49 -4 112.5 49t110.5 182l56 152q-31 233 -82 315q-55 90 -133 113q-43 12 -74 12q-57 0 -109 -63q-61 -78 -82 -238z M373 1348q0 68 35 118q41 61 110 62q111 0 111 -111q0 -80 -97 -90q-55 6 -59 6q-27 0 -27 -26q0 -47 56 -111q49 -59 96 -82l-16 -37q-72 27 -138 111q-72 88 -71 160zM457 -399q0 35 12 84q23 98 61 182h91q-29 -49 -54 -141q-8 -33 -8 -60q0 -82 74 -72q39 -2 65 17 q6 4 43 41l-22 -162q-63 -41 -121 -41q-41 0 -74 21q-68 43 -67 131z" />
<glyph unicode="&#xd8;" horiz-adv-x="948" d="M63 446q0 195 123 340q117 139 299 140q129 0 244 -80q199 -137 199 -393q0 -225 -162 -381q-111 -106 -270 -107q-104 0 -203 49q-229 158 -230 432zM209 1466q0 20 18 50q16 23 29 30q25 14 63 15q37 0 46 -19l182 -401q2 -4 2 -11q0 -20 -25 -30t-39 8l-270 342 q-6 6 -6 16zM242 510q0 -195 80 -338q74 -131 202 -131q98 0 163 97t65 290q0 227 -101 348q-78 94 -176 94q-61 0 -114.5 -37.5t-77.5 -93.5q-41 -96 -41 -229z" />
<glyph unicode="&#xd9;" horiz-adv-x="1042" d="M0 668q4 43 10 88t39 98q53 84 162 84q45 0 87 -23.5t60 -72.5q2 -4 25 -86q68 94 96 121q82 76 195 75q86 0 135 -37q113 -86 117 -229l20 -922q11 -47 31 -139h-166q-10 45 -25 187l-24 829q-4 104 -52 144t-116 40q-82 0 -141 -57q-37 -45 -72 -90v-678h-158v637 q0 119 -39 168q-27 33 -61 33q-27 0 -47.5 -22.5t-28.5 -65.5t-14 -82h-33zM100 1348q0 68 35 118q41 61 111 62q110 0 110 -111q0 -80 -96 -90q-55 6 -59 6q-27 0 -27 -26q0 -47 55 -111q49 -59 97 -82l-17 -37q-72 27 -137 111q-72 88 -72 160zM487 1466q0 20 17.5 46 t30.5 34q23 14 63 15q37 0 45 -19l182 -401q2 -4 2 -11q0 -20 -24 -30q-25 -10 -39 8l-270 342q-6 6 -7 16z" />
<glyph unicode="&#xda;" horiz-adv-x="643" d="M0 1475q-6 123 79 205.5t232 82.5q152 0 236 -86q76 -75 88 -202h-68q-53 178 -243 178q-84 0 -161 -52.5t-95 -125.5h-68zM82 797v37q109 20 321 98v-684q0 -104 32 -148.5t63 -44.5q12 0 32 6q39 10 58 60q8 33 16 65h35q-41 -231 -219 -219q-82 6 -133 70 q-41 51 -41 100v443q0 158 -60 200q-25 16 -104 17zM119 1282q0 68 35 119q41 61 110 61q111 1 111 -110q0 -82 -96 -90q-55 6 -60 6q-27 0 -26 -27q0 -47 55 -111q49 -59 96 -81l-16 -37q-72 27 -138 110q-72 88 -71 160z" />
<glyph unicode="&#xdb;" horiz-adv-x="1236" d="M80 399q0 41 4 95q23 238 195 368q61 47 147 60q8 0 125 4v-31q-150 -57 -203 -143q-80 -133 -80 -330q0 -86 15 -168q23 -117 75 -168q37 -35 84 -35q20 0 45 6q78 23 113 111q14 57 29 113q-53 150 -54 260q0 49 9 100q23 125 88 125q70 0 90 -125q8 -49 8 -96 q0 -109 -53 -264q14 -55 28 -113q35 -88 113 -111q25 -6 45 -6q47 0 84 35q51 51 74 168q16 86 16 172q0 195 -80 326q-53 86 -202 143v31q117 -4 125 -4q86 -12 147 -60q172 -130 195 -368q4 -49 4 -91q0 -115 -45 -225q-55 -133 -166 -184q-55 -27 -117 -27q-66 0 -121 33 q-84 49 -145 152q-59 -102 -144 -152q-55 -33 -120 -33q-59 0 -117 27q-113 53 -168 184q-43 106 -43 221zM553 -358q0 35 12 84q23 98 62 182h90q-29 -49 -53 -141q-8 -33 -9 -60q0 -82 76 -72q37 -2 64 17q6 4 43 41l-23 -162q-63 -41 -121 -41q-41 0 -73 21 q-68 43 -68 131z" />
<glyph unicode="&#xdc;" d="M76 420q0 63 10 135q29 205 201 322q76 51 194 51q137 0 226 -113q74 -94 98 -242l119 330h163l-213 -588q20 -121 76 -174q37 -35 68 -35t57 27q35 35 43 123h35l-4 -111q-4 -94 -70 -147q-31 -25 -59 -25q-33 0 -66 31q-53 51 -118 227q-68 -117 -68 -118 q-66 -84 -170 -117q-86 -27 -147 -27q-74 0 -150 33q-102 45 -158 139q-68 115 -67 279zM274 553q-18 -145 13 -309q18 -102 71.5 -155.5t116.5 -57.5q49 -4 112.5 49t110.5 182l56 152q-31 233 -82 315q-55 90 -133 113q-43 12 -74 12q-57 0 -109 -63q-61 -78 -82 -238z M293 1417q0 111 110 111q70 0 111 -62q35 -50 35 -118q0 -72 -68.5 -158t-140.5 -113l-16 37q47 23 99 84.5t52 108.5q0 27 -26 26q-4 0 -60 -6q-96 10 -96 90zM457 -399q0 35 12 84q23 98 61 182h91q-29 -49 -54 -141q-8 -33 -8 -60q0 -82 74 -72q39 -2 65 17q6 4 43 41 l-22 -162q-63 -41 -121 -41q-41 0 -74 21q-68 43 -67 131zM629 1130q0 4 2 11l180 401q8 18 47 19q39 0 64 -15q12 -8 28.5 -32.5t16.5 -45.5q0 -10 -6 -18l-271 -342q-8 -10 -22 -10q-39 0 -39 32z" />
<glyph unicode="&#xdf;" d="M76 420q0 63 10 135q29 205 201 322q76 51 194 51q137 0 226 -113q74 -94 98 -242l119 330h163l-213 -588q20 -121 76 -174q37 -35 68 -35t57 27q35 35 43 123h35l-4 -111q-4 -94 -70 -147q-31 -25 -59 -25q-33 0 -66 31q-53 51 -118 227q-68 -117 -68 -118 q-66 -84 -170 -117q-86 -27 -147 -27q-74 0 -150 33q-102 45 -158 139q-68 115 -67 279zM274 553q-18 -145 13 -309q18 -102 71.5 -155.5t116.5 -57.5q49 -4 112.5 49t110.5 182l56 152q-31 233 -82 315q-55 90 -133 113q-43 12 -74 12q-57 0 -109 -63q-61 -78 -82 -238z M283 1475q-4 123 81 205.5t232 82.5q152 0 235 -86q77 -75 89 -202h-68q-53 178 -244 178q-84 0 -160.5 -52.5t-97.5 -125.5h-67zM496 1352q0 111 110 110q70 0 111 -61q35 -51 35 -119q0 -72 -69 -158t-140 -112l-17 37q47 23 99.5 84t52.5 108q0 27 -27 27q-4 0 -59 -6 q-96 8 -96 90z" />
<glyph unicode="&#xe0;" horiz-adv-x="980" d="M285 -338q170 35 170 250v336q0 125 28 180q35 72 138 98q-100 27 -136 90q-31 53 -30 172v357q0 111 -37 169t-133 83q168 2 235 -49q82 -61 82 -232v-358q0 -102 31 -150q33 -55 125 -82q-96 -27 -129 -80q-27 -45 -27 -155v-326q0 -184 -69.5 -245.5t-247.5 -57.5z " />
<glyph unicode="&#xe1;" d="M76 420q0 63 10 135q29 205 201 322q76 51 194 51q137 0 226 -113q74 -94 98 -242l119 330h163l-213 -588q20 -121 76 -174q37 -35 68 -35t57 27q35 35 43 123h35l-4 -111q-4 -94 -70 -147q-31 -25 -59 -25q-33 0 -66 31q-53 51 -118 227q-68 -117 -68 -118 q-66 -84 -170 -117q-86 -27 -147 -27q-74 0 -150 33q-102 45 -158 139q-68 115 -67 279zM168 1348q0 68 35 118q41 61 110 62q111 0 111 -111q0 -80 -98 -90q-55 6 -58 6q-27 0 -26 -26q0 -47 55 -111q49 -59 96 -82l-16 -37q-72 27 -137 111q-72 88 -72 160zM274 553 q-18 -145 13 -309q18 -102 71.5 -155.5t116.5 -57.5q49 -4 112.5 49t110.5 182l56 152q-31 233 -82 315q-55 90 -133 113q-43 12 -74 12q-57 0 -109 -63q-61 -78 -82 -238zM457 -399q0 35 12 84q23 98 61 182h91q-29 -49 -54 -141q-8 -33 -8 -60q0 -82 74 -72q39 -2 65 17 q6 4 43 41l-22 -162q-63 -41 -121 -41q-41 0 -74 21q-68 43 -67 131zM623 1130q0 6 2 11l182 401q8 18 45 19q39 0 63 -15q12 -8 29 -30q18 -29 19 -50q-1 -10 -7 -16l-270 -342q-8 -10 -22 -10q-41 0 -41 32z" />
<glyph unicode="&#xe2;" d="M76 420q0 63 10 135q29 205 201 322q76 51 194 51q137 0 226 -113q74 -94 98 -242l119 330h163l-213 -588q20 -121 76 -174q37 -35 68 -35t57 27q35 35 43 123h35l-4 -111q-4 -94 -70 -147q-31 -25 -59 -25q-33 0 -66 31q-53 51 -118 227q-68 -117 -68 -118 q-66 -84 -170 -117q-86 -27 -147 -27q-74 0 -150 33q-102 45 -158 139q-68 115 -67 279zM274 553q-18 -145 13 -309q18 -102 71.5 -155.5t116.5 -57.5q49 -4 112.5 49t110.5 182l56 152q-31 233 -82 315q-55 90 -133 113q-43 12 -74 12q-57 0 -109 -63q-61 -78 -82 -238z M283 1475q-4 123 81 205.5t232 82.5q152 0 235 -86q77 -75 89 -202h-68q-53 178 -244 178q-84 0 -160.5 -52.5t-97.5 -125.5h-67zM457 -399q0 35 12 84q23 98 61 182h91q-29 -49 -54 -141q-8 -33 -8 -60q0 -82 74 -72q39 -2 65 17q6 4 43 41l-22 -162q-63 -41 -121 -41 q-41 0 -74 21q-68 43 -67 131zM496 1352q0 111 110 110q70 0 111 -61q35 -51 35 -119q0 -72 -69 -158t-140 -112l-17 37q47 23 99.5 84t52.5 108q0 27 -27 27q-4 0 -59 -6q-96 8 -96 90z" />
<glyph unicode="&#xe3;" d="M76 420q0 63 10 135q29 205 201 322q76 51 194 51q137 0 226 -113q74 -94 98 -242l119 330h163l-213 -588q20 -121 76 -174q37 -35 68 -35t57 27q35 35 43 123h35l-4 -111q-4 -94 -70 -147q-31 -25 -59 -25q-33 0 -66 31q-53 51 -118 227q-68 -117 -68 -118 q-66 -84 -170 -117q-86 -27 -147 -27q-74 0 -150 33q-102 45 -158 139q-68 115 -67 279zM262 1417q0 111 111 111q70 0 110 -62q35 -50 35 -118q0 -72 -68.5 -158t-140.5 -113l-16 37q47 23 99 84.5t52 108.5q0 27 -26 26q-4 0 -60 -6q-96 10 -96 90zM274 553 q-18 -145 13 -309q18 -102 71.5 -155.5t116.5 -57.5q49 -4 112.5 49t110.5 182l56 152q-31 233 -82 315q-55 90 -133 113q-43 12 -74 12q-57 0 -109 -63q-61 -78 -82 -238zM457 -399q0 35 12 84q23 98 61 182h91q-29 -49 -54 -141q-8 -33 -8 -60q0 -82 74 -72q39 -2 65 17 q6 4 43 41l-22 -162q-63 -41 -121 -41q-41 0 -74 21q-68 43 -67 131zM627 1466q0 20 17.5 46t29.5 34q23 14 63 15q37 0 45 -19l183 -401q2 -4 2 -11q0 -20 -25 -30t-39 8l-270 342q-6 6 -6 16z" />
<glyph unicode="&#xe4;" d="M76 420q0 63 10 135q29 205 201 322q76 51 194 51q137 0 226 -113q74 -94 98 -242l119 330h163l-213 -588q20 -121 76 -174q37 -35 68 -35t57 27q35 35 43 123h35l-4 -111q-4 -94 -70 -147q-31 -25 -59 -25q-33 0 -66 31q-53 51 -118 227q-68 -117 -68 -118 q-66 -84 -170 -117q-86 -27 -147 -27q-74 0 -150 33q-102 45 -158 139q-68 115 -67 279zM254 1475q-6 123 79 205.5t232 82.5q152 0 236 -86q76 -75 88 -202h-68q-53 178 -243 178q-84 0 -161 -52.5t-95 -125.5h-68zM274 553q-18 -145 13 -309q18 -102 71.5 -155.5 t116.5 -57.5q49 -4 112.5 49t110.5 182l56 152q-31 233 -82 315q-55 90 -133 113q-43 12 -74 12q-57 0 -109 -63q-61 -78 -82 -238zM373 1282q0 68 35 119q41 61 110 61q111 1 111 -110q0 -82 -97 -90q-55 6 -59 6q-27 0 -27 -27q0 -47 56 -111q49 -59 96 -81l-16 -37 q-72 27 -138 110q-72 88 -71 160zM457 -399q0 35 12 84q23 98 61 182h91q-29 -49 -54 -141q-8 -33 -8 -60q0 -82 74 -72q39 -2 65 17q6 4 43 41l-22 -162q-63 -41 -121 -41q-41 0 -74 21q-68 43 -67 131z" />
<glyph unicode="&#xe5;" d="M76 420q0 63 10 135q29 205 201 322q76 51 194 51q137 0 226 -113q74 -94 98 -242l119 330h163l-213 -588q20 -121 76 -174q37 -35 68 -35t57 27q35 35 43 123h35l-4 -111q-4 -94 -70 -147q-31 -25 -59 -25q-33 0 -66 31q-53 51 -118 227q-68 -117 -68 -118 q-66 -84 -170 -117q-86 -27 -147 -27q-74 0 -150 33q-102 45 -158 139q-68 115 -67 279zM274 553q-18 -145 13 -309q18 -102 71.5 -155.5t116.5 -57.5q49 -4 112.5 49t110.5 182l56 152q-31 233 -82 315q-55 90 -133 113q-43 12 -74 12q-57 0 -109 -63q-61 -78 -82 -238z M508 1130q0 4 2 11l180 401q8 18 47 19q39 0 64 -15q12 -8 28.5 -32.5t16.5 -45.5q0 -10 -6 -18l-271 -342q-8 -10 -22 -10q-39 0 -39 32z" />
<glyph unicode="&#xe6;" horiz-adv-x="1236" d="M80 399q0 41 4 95q23 238 195 368q61 47 147 60q8 0 125 4v-31q-150 -57 -203 -143q-80 -133 -80 -330q0 -86 15 -168q23 -117 75 -168q37 -35 84 -35q20 0 45 6q78 23 113 111q14 57 29 113q-53 150 -54 260q0 49 9 100q23 125 88 125q70 0 90 -125q8 -49 8 -96 q0 -109 -53 -264q14 -55 28 -113q35 -88 113 -111q25 -6 45 -6q47 0 84 35q51 51 74 168q16 86 16 172q0 195 -80 326q-53 86 -202 143v31q117 -4 125 -4q86 -12 147 -60q172 -130 195 -368q4 -49 4 -91q0 -115 -45 -225q-55 -133 -166 -184q-55 -27 -117 -27q-66 0 -121 33 q-84 49 -145 152q-59 -102 -144 -152q-55 -33 -120 -33q-59 0 -117 27q-113 53 -168 184q-43 106 -43 221zM373 1417q0 111 110 111q70 0 111 -62q35 -50 35 -118q0 -72 -68.5 -158t-140.5 -113l-17 37q47 23 99.5 84.5t52.5 108.5q0 27 -27 26q-4 0 -59 -6q-96 10 -96 90z M709 1466q0 20 17 46t30 34q23 14 63 15q37 0 45 -19l183 -401q2 -4 2 -11q0 -20 -25 -30t-39 8l-270 342q-6 6 -6 16z" />
<glyph unicode="&#xe7;" horiz-adv-x="980" d="M225 526q92 27 125 82q31 47 31 150v358q0 170 82 232q68 51 235 49q-96 -25 -133 -83.5t-37 -168.5v-357q0 -119 -30 -172q-35 -63 -136 -90q102 -27 140 -98q27 -55 26 -180v-336q0 -215 170 -250q-178 -4 -247.5 57.5t-69.5 245.5v326q0 111 -27 155q-33 53 -129 80z " />
<glyph unicode="&#xe8;" horiz-adv-x="679" d="M37 0v39q201 0 201 125v1028q0 125 -201 125v39h610v-39q-201 0 -201 -125v-1028q0 -125 201 -125v-39h-610zM37 1610q0 39 30.5 70.5t69.5 31.5q41 0 72 -30.5t31 -71.5t-31 -71t-72 -30q-39 0 -69.5 31t-30.5 70zM444 1610q0 39 31 70.5t70 31.5q41 0 71.5 -30.5 t30.5 -71.5t-30.5 -71t-71.5 -30q-39 0 -70 31t-31 70z" />
<glyph unicode="&#xe9;" horiz-adv-x="1474" d="M45 1317v39h573v-39q-145 0 -145 -57q0 -41 49 -115l289 -434l281 442q41 63 41 96q0 14 -7 29q-16 39 -135 39v39h449v-39q-143 -18 -297 -254l-289 -442v-457q0 -125 207 -125v-39h-623v39q207 0 207 125v438l-254 373q-156 227 -170 246q-80 94 -176 96zM436 1610 q0 39 31 70.5t70 31.5q41 0 71.5 -30.5t30.5 -71.5t-30.5 -71t-71.5 -30q-39 0 -70 31t-31 70zM844 1610q0 39 30.5 70.5t69.5 31.5q41 0 72 -30.5t31 -71.5t-31 -71t-72 -30q-39 0 -69.5 31t-30.5 70z" />
<glyph unicode="&#xea;" d="M76 420q0 63 10 135q29 205 201 322q76 51 194 51q137 0 226 -113q74 -94 98 -242l119 330h163l-213 -588q20 -121 76 -174q37 -35 68 -35t57 27q35 35 43 123h35l-4 -111q-4 -94 -70 -147q-31 -25 -59 -25q-33 0 -66 31q-53 51 -118 227q-68 -117 -68 -118 q-66 -84 -170 -117q-86 -27 -147 -27q-74 0 -150 33q-102 45 -158 139q-68 115 -67 279zM154 1348q0 68 34 118q41 61 111 62q111 0 111 -111q0 -80 -99 -90q-55 6 -57 6q-27 0 -27 -26q0 -47 56 -111q49 -59 96 -82l-17 -37q-72 27 -137 111q-72 88 -71 160zM274 553 q-18 -145 13 -309q18 -102 71.5 -155.5t116.5 -57.5q49 -4 112.5 49t110.5 182l56 152q-31 233 -82 315q-55 90 -133 113q-43 12 -74 12q-57 0 -109 -63q-61 -78 -82 -238zM457 -399q0 35 12 84q23 98 61 182h91q-29 -49 -54 -141q-8 -33 -8 -60q0 -82 74 -72q39 -2 65 17 q6 4 43 41l-22 -162q-63 -41 -121 -41q-41 0 -74 21q-68 43 -67 131zM610 1466q0 20 17.5 46t29.5 34q23 14 64 15q37 0 45 -19l182 -401q2 -4 2 -11q0 -20 -24 -30q-25 -10 -39 8l-271 342q-6 6 -6 16z" />
<glyph unicode="&#xeb;" horiz-adv-x="1042" d="M0 668q4 43 10 88t39 98q53 84 162 84q45 0 87 -23.5t60 -72.5q2 -4 25 -86q68 94 96 121q82 76 195 75q86 0 135 -37q113 -86 117 -229l20 -922q11 -47 31 -139h-166q-10 45 -25 187l-24 829q-4 104 -52 144t-116 40q-82 0 -141 -57q-37 -45 -72 -90v-678h-158v637 q0 119 -39 168q-27 33 -61 33q-27 0 -47.5 -22.5t-28.5 -65.5t-14 -82h-33zM242 -379q0 35 12 84q23 98 61 182h91q-29 -49 -54 -141q-8 -33 -8 -59q0 -82 76 -72q49 -4 106 57l-22 -161q-61 -41 -119 -41q-43 0 -76 20q-68 43 -67 131z" />
<glyph unicode="&#xec;" horiz-adv-x="1042" d="M0 668q4 43 10 88t39 98q53 84 162 84q45 0 87 -23.5t60 -72.5q2 -4 25 -86q68 94 96 121q82 76 195 75q86 0 135 -37q113 -86 117 -229l20 -922q11 -47 31 -139h-166q-10 45 -25 187l-24 829q-4 104 -52 144t-116 40q-82 0 -141 -57q-37 -45 -72 -90v-678h-158v637 q0 119 -39 168q-27 33 -61 33q-27 0 -47.5 -22.5t-28.5 -65.5t-14 -82h-33zM209 1466q0 20 18 50q16 23 29 30q25 14 63 15q37 0 46 -19l182 -401q2 -4 2 -11q0 -20 -25 -30t-39 8l-270 342q-6 6 -6 16zM242 -379q0 35 12 84q23 98 61 182h91q-29 -49 -54 -141 q-8 -33 -8 -59q0 -82 76 -72q49 -4 106 57l-22 -161q-61 -41 -119 -41q-43 0 -76 20q-68 43 -67 131z" />
<glyph unicode="&#xed;" horiz-adv-x="1042" d="M0 668q4 43 10 88t39 98q53 84 162 84q45 0 87 -23.5t60 -72.5q2 -4 25 -86q68 94 96 121q82 76 195 75q86 0 135 -37q113 -86 117 -229l20 -922q11 -47 31 -139h-166q-10 45 -25 187l-24 829q-4 104 -52 144t-116 40q-82 0 -141 -57q-37 -45 -72 -90v-678h-158v637 q0 119 -39 168q-27 33 -61 33q-27 0 -47.5 -22.5t-28.5 -65.5t-14 -82h-33zM242 -379q0 35 12 84q23 98 61 182h91q-29 -49 -54 -141q-8 -33 -8 -59q0 -82 76 -72q49 -4 106 57l-22 -161q-61 -41 -119 -41q-43 0 -76 20q-68 43 -67 131zM373 1130q0 4 2 11l180 401 q8 18 47 19q39 0 64 -15q12 -8 28.5 -32.5t16.5 -45.5q0 -10 -6 -18l-271 -342q-8 -10 -22 -10q-39 0 -39 32z" />
<glyph unicode="&#xee;" horiz-adv-x="1042" d="M0 668q4 43 10 88t39 98q53 84 162 84q45 0 87 -23.5t60 -72.5q2 -4 25 -86q68 94 96 121q82 76 195 75q86 0 135 -37q113 -86 117 -229l20 -922q11 -47 31 -139h-166q-10 45 -25 187l-24 829q-4 104 -52 144t-116 40q-82 0 -141 -57q-37 -45 -72 -90v-678h-158v637 q0 119 -39 168q-27 33 -61 33q-27 0 -47.5 -22.5t-28.5 -65.5t-14 -82h-33zM242 -379q0 35 12 84q23 98 61 182h91q-29 -49 -54 -141q-8 -33 -8 -59q0 -82 76 -72q49 -4 106 57l-22 -161q-61 -41 -119 -41q-43 0 -76 20q-68 43 -67 131zM393 1417q0 111 111 111 q70 0 112 -62q35 -50 35 -118q0 -72 -68.5 -158t-140.5 -113l-16 37q47 23 99.5 84.5t52.5 108.5q0 27 -27 26q-4 0 -59 -6q-98 12 -99 90z" />
<glyph unicode="&#xef;" horiz-adv-x="1042" d="M0 668q4 43 10 88t39 98q53 84 162 84q45 0 87 -23.5t60 -72.5q2 -4 25 -86q68 94 96 121q82 76 195 75q86 0 135 -37q113 -86 117 -229l20 -922q11 -47 31 -139h-166q-10 45 -25 187l-24 829q-4 104 -52 144t-116 40q-82 0 -141 -57q-37 -45 -72 -90v-678h-158v637 q0 119 -39 168q-27 33 -61 33q-27 0 -47.5 -22.5t-28.5 -65.5t-14 -82h-33zM242 -379q0 35 12 84q23 98 61 182h91q-29 -49 -54 -141q-8 -33 -8 -59q0 -82 76 -72q49 -4 106 57l-22 -161q-61 -41 -119 -41q-43 0 -76 20q-68 43 -67 131zM252 1348q0 68 35 118q41 61 110 62 q111 0 111 -111q0 -80 -98 -90q-55 6 -58 6q-27 0 -26 -26q0 -47 55 -111q49 -59 96 -82l-16 -37q-72 27 -137 111q-72 88 -72 160z" />
<glyph unicode="&#xf1;" horiz-adv-x="1042" d="M0 668q4 43 10 88t39 98q53 84 162 84q45 0 87 -23.5t60 -72.5q2 -4 25 -86q68 94 96 121q82 76 195 75q86 0 135 -37q113 -86 117 -229l20 -922q11 -47 31 -139h-166q-10 45 -25 187l-24 829q-4 104 -52 144t-116 40q-82 0 -141 -57q-37 -45 -72 -90v-678h-158v637 q0 119 -39 168q-27 33 -61 33q-27 0 -47.5 -22.5t-28.5 -65.5t-14 -82h-33zM242 -379q0 35 12 84q23 98 61 182h91q-29 -49 -54 -141q-8 -33 -8 -59q0 -82 76 -72q49 -4 106 57l-22 -161q-61 -41 -119 -41q-43 0 -76 20q-68 43 -67 131zM242 1417q0 111 110 111 q70 0 111 -62q35 -50 35 -118q0 -72 -69 -158t-140 -113l-17 37q47 23 99.5 84.5t52.5 108.5q0 27 -27 26q-4 0 -59 -6q-96 10 -96 90zM578 1130q0 4 2 11l180 401q8 18 47 19q39 0 63 -15q12 -8 28.5 -32.5t16.5 -45.5q0 -10 -6 -18l-270 -342q-8 -10 -23 -10q-39 0 -38 32 z" />
<glyph unicode="&#xf2;" horiz-adv-x="1042" d="M0 668q4 43 10 88t39 98q53 84 162 84q45 0 87 -23.5t60 -72.5q2 -4 25 -86q68 94 96 121q82 76 195 75q86 0 135 -37q113 -86 117 -229l20 -922q11 -47 31 -139h-166q-10 45 -25 187l-24 829q-4 104 -52 144t-116 40q-82 0 -141 -57q-37 -45 -72 -90v-678h-158v637 q0 119 -39 168q-27 33 -61 33q-27 0 -47.5 -22.5t-28.5 -65.5t-14 -82h-33zM160 1475q-4 123 81 205.5t232 82.5q152 0 236 -86q76 -75 88 -202h-68q-53 178 -244 178q-84 0 -160.5 -52.5t-97.5 -125.5h-67zM242 -379q0 35 12 84q23 98 61 182h91q-29 -49 -54 -141 q-8 -33 -8 -59q0 -82 76 -72q49 -4 106 57l-22 -161q-61 -41 -119 -41q-43 0 -76 20q-68 43 -67 131zM393 1352q0 111 111 110q70 0 112 -61q35 -51 35 -119q0 -72 -68.5 -158t-140.5 -112l-16 37q47 23 99.5 84t52.5 108q0 27 -27 27q-4 0 -59 -6q-98 8 -99 90z" />
<glyph unicode="&#xf3;" horiz-adv-x="1042" d="M0 668q4 43 10 88t39 98q53 84 162 84q45 0 87 -23.5t60 -72.5q2 -4 25 -86q68 94 96 121q82 76 195 75q86 0 135 -37q113 -86 117 -229l20 -922q11 -47 31 -139h-166q-10 45 -25 187l-24 829q-4 104 -52 144t-116 40q-82 0 -141 -57q-37 -45 -72 -90v-678h-158v637 q0 119 -39 168q-27 33 -61 33q-27 0 -47.5 -22.5t-28.5 -65.5t-14 -82h-33zM115 1348q0 68 35 118q41 61 110 62q111 0 111 -111q0 -80 -97 -90q-55 6 -59 6q-27 0 -27 -26q0 -47 56 -111q49 -59 96 -82l-16 -37q-72 27 -138 111q-72 88 -71 160zM242 -379q0 35 12 84 q23 98 61 182h91q-29 -49 -54 -141q-8 -33 -8 -59q0 -82 76 -72q49 -4 106 57l-22 -161q-61 -41 -119 -41q-43 0 -76 20q-68 43 -67 131zM575 1130q0 6 3 11l182 401q8 18 45 19q39 0 63 -15q12 -8 28.5 -32.5t16.5 -45.5q0 -10 -6 -18l-268 -342q-8 -10 -23 -10 q-41 0 -41 32z" />
<glyph unicode="&#xf4;" horiz-adv-x="1042" d="M0 668q4 43 10 88t39 98q53 84 162 84q45 0 87 -23.5t60 -72.5q2 -4 25 -86q68 94 96 121q82 76 195 75q86 0 135 -37q113 -86 117 -229l20 -922q11 -47 31 -139h-166q-10 45 -25 187l-24 829q-4 104 -52 144t-116 40q-82 0 -141 -57q-37 -45 -72 -90v-678h-158v637 q0 119 -39 168q-27 33 -61 33q-27 0 -47.5 -22.5t-28.5 -65.5t-14 -82h-33zM117 1475q-6 123 79 205.5t232 82.5q152 0 236 -86q76 -75 88 -202h-68q-53 178 -244 178q-84 0 -160.5 -52.5t-95.5 -125.5h-67zM242 -379q0 35 12 84q23 98 61 182h91q-29 -49 -54 -141 q-8 -33 -8 -59q0 -82 76 -72q49 -4 106 57l-22 -161q-61 -41 -119 -41q-43 0 -76 20q-68 43 -67 131zM246 1282q0 68 35 119q41 61 110 61q111 1 111 -110q0 -82 -96 -90q-55 6 -60 6q-27 0 -27 -27q0 -47 56 -111q49 -59 96 -81l-16 -37q-72 27 -138 110q-72 88 -71 160z " />
<glyph unicode="&#xf5;" horiz-adv-x="1042" d="M0 668q4 43 10 88t39 98q53 84 162 84q45 0 87 -23.5t60 -72.5q2 -4 25 -86q68 94 96 121q82 76 195 75q86 0 135 -37q113 -86 117 -229l20 -922q11 -47 31 -139h-166q-10 45 -25 187l-24 829q-4 104 -52 144t-116 40q-82 0 -141 -57q-37 -45 -72 -90v-678h-158v637 q0 119 -39 168q-27 33 -61 33q-27 0 -47.5 -22.5t-28.5 -65.5t-14 -82h-33zM100 1348q0 68 35 118q41 61 111 62q110 0 110 -111q0 -80 -96 -90q-55 6 -59 6q-27 0 -27 -26q0 -47 55 -111q49 -59 97 -82l-17 -37q-72 27 -137 111q-72 88 -72 160zM242 -379q0 35 12 84 q23 98 61 182h91q-29 -49 -54 -141q-8 -33 -8 -59q0 -82 76 -72q49 -4 106 57l-22 -161q-61 -41 -119 -41q-43 0 -76 20q-68 43 -67 131zM487 1466q0 20 17.5 46t30.5 34q23 14 63 15q37 0 45 -19l182 -401q2 -4 2 -11q0 -20 -24 -30q-25 -10 -39 8l-270 342q-6 6 -7 16z " />
<glyph unicode="&#xf6;" horiz-adv-x="1042" d="M0 668q4 43 10 88t39 98q53 84 162 84q45 0 87 -23.5t60 -72.5q2 -4 25 -86q68 94 96 121q82 76 195 75q86 0 135 -37q113 -86 117 -229l20 -922q11 -47 31 -139h-166q-10 45 -25 187l-24 829q-4 104 -52 144t-116 40q-82 0 -141 -57q-37 -45 -72 -90v-678h-158v637 q0 119 -39 168q-27 33 -61 33q-27 0 -47.5 -22.5t-28.5 -65.5t-14 -82h-33zM195 1417q0 111 110 111q70 0 111 -62q35 -50 35 -118q0 -72 -69 -158t-140 -113l-17 37q47 23 99.5 84.5t52.5 108.5q0 27 -27 26q-4 0 -59 -6q-96 10 -96 90zM242 -379q0 35 12 84q23 98 61 182 h91q-29 -49 -54 -141q-8 -33 -8 -59q0 -82 76 -72q49 -4 106 57l-22 -161q-61 -41 -119 -41q-43 0 -76 20q-68 43 -67 131zM508 1466q0 20 17.5 46t29.5 34q23 14 63 15q37 0 46 -19l182 -401q2 -4 2 -11q0 -20 -25 -30t-39 8l-270 342q-6 6 -6 16z" />
<glyph unicode="&#xf7;" horiz-adv-x="1236" d="M80 399q0 41 4 95q23 238 195 368q61 47 147 60q8 0 125 4v-31q-150 -57 -203 -143q-80 -133 -80 -330q0 -86 15 -168q23 -117 75 -168q37 -35 84 -35q20 0 45 6q78 23 113 111q14 57 29 113q-53 150 -54 260q0 49 9 100q23 125 88 125q70 0 90 -125q8 -49 8 -96 q0 -109 -53 -264q14 -55 28 -113q35 -88 113 -111q25 -6 45 -6q47 0 84 35q51 51 74 168q16 86 16 172q0 195 -80 326q-53 86 -202 143v31q117 -4 125 -4q86 -12 147 -60q172 -130 195 -368q4 -49 4 -91q0 -115 -45 -225q-55 -133 -166 -184q-55 -27 -117 -27q-66 0 -121 33 q-84 49 -145 152q-59 -102 -144 -152q-55 -33 -120 -33q-59 0 -117 27q-113 53 -168 184q-43 106 -43 221zM367 1485q-6 123 78.5 206t232.5 83q152 0 235 -84q76 -76 88 -205h-67q-53 178 -244 178q-84 0 -160.5 -52t-95.5 -126h-67zM553 -358q0 35 12 84q23 98 62 182h90 q-29 -49 -53 -141q-8 -33 -9 -60q0 -82 76 -72q37 -2 64 17q6 4 43 41l-23 -162q-63 -41 -121 -41q-41 0 -73 21q-68 43 -68 131zM600 1360q0 111 111 110q70 0 110 -61q35 -51 35 -119q0 -72 -68.5 -157.5t-140.5 -112.5l-16 37q47 23 99 84t52 108q0 27 -26 27 q-4 0 -60 -6q-96 8 -96 90z" />
<glyph unicode="&#xf8;" horiz-adv-x="948" d="M63 446q0 195 123 340q117 139 299 140q129 0 244 -80q199 -137 199 -393q0 -225 -162 -381q-111 -106 -270 -107q-104 0 -203 49q-229 158 -230 432zM242 510q0 -195 80 -338q74 -131 202 -131q98 0 163 97t65 290q0 227 -101 348q-78 94 -176 94q-61 0 -114.5 -37.5 t-77.5 -93.5q-41 -96 -41 -229zM381 1130q0 4 2 11l180 401q8 18 47 19q39 0 64 -15q12 -8 28.5 -32.5t16.5 -45.5q0 -10 -6 -18l-271 -342q-8 -10 -22 -10q-39 0 -39 32z" />
<glyph unicode="&#xf9;" horiz-adv-x="847" d="M190 1309q0 111 111 110q70 0 111 -61q34 -51 34 -119q0 -72 -68.5 -158t-139.5 -112l-17 37q47 23 99.5 84t52.5 108q0 27 -27 27q-4 0 -59 -6q-96 8 -97 90zM557 1343q0 20 17.5 46t29.5 34q23 14 64 15q37 0 45 -19l182 -401q2 -4 2 -10q0 -20 -25 -31q-25 -10 -38 8 l-271 342q-6 6 -6 16z" />
<glyph unicode="&#xfa;" horiz-adv-x="1236" d="M80 399q0 41 4 95q23 238 195 368q61 47 147 60q8 0 125 4v-31q-150 -57 -203 -143q-80 -133 -80 -330q0 -86 15 -168q23 -117 75 -168q37 -35 84 -35q20 0 45 6q78 23 113 111q14 57 29 113q-53 150 -54 260q0 49 9 100q23 125 88 125q70 0 90 -125q8 -49 8 -96 q0 -109 -53 -264q14 -55 28 -113q35 -88 113 -111q25 -6 45 -6q47 0 84 35q51 51 74 168q16 86 16 172q0 195 -80 326q-53 86 -202 143v31q117 -4 125 -4q86 -12 147 -60q172 -130 195 -368q4 -49 4 -91q0 -115 -45 -225q-55 -133 -166 -184q-55 -27 -117 -27q-66 0 -121 33 q-84 49 -145 152q-59 -102 -144 -152q-55 -33 -120 -33q-59 0 -117 27q-113 53 -168 184q-43 106 -43 221zM553 -358q0 35 12 84q23 98 62 182h90q-29 -49 -53 -141q-8 -33 -9 -60q0 -82 76 -72q37 -2 64 17q6 4 43 41l-23 -162q-63 -41 -121 -41q-41 0 -73 21 q-68 43 -68 131zM573 1130q0 6 2 11l183 401q8 18 45 19q39 0 63 -15q12 -8 29 -30q18 -29 18 -50q0 -10 -6 -16l-270 -342q-8 -10 -23 -10q-41 0 -41 32z" />
<glyph unicode="&#xfb;" horiz-adv-x="1236" d="M80 399q0 41 4 95q23 238 195 368q61 47 147 60q8 0 125 4v-31q-150 -57 -203 -143q-80 -133 -80 -330q0 -86 15 -168q23 -117 75 -168q37 -35 84 -35q20 0 45 6q78 23 113 111q14 57 29 113q-53 150 -54 260q0 49 9 100q23 125 88 125q70 0 90 -125q8 -49 8 -96 q0 -109 -53 -264q14 -55 28 -113q35 -88 113 -111q25 -6 45 -6q47 0 84 35q51 51 74 168q16 86 16 172q0 195 -80 326q-53 86 -202 143v31q117 -4 125 -4q86 -12 147 -60q172 -130 195 -368q4 -49 4 -91q0 -115 -45 -225q-55 -133 -166 -184q-55 -27 -117 -27q-66 0 -121 33 q-84 49 -145 152q-59 -102 -144 -152q-55 -33 -120 -33q-59 0 -117 27q-113 53 -168 184q-43 106 -43 221zM403 1466q0 20 17.5 46t30.5 34q23 14 63 15q37 0 45 -19l182 -401q2 -4 2 -11q0 -20 -24 -30q-25 -10 -39 8l-270 342q-6 6 -7 16zM553 -358q0 35 12 84 q23 98 62 182h90q-29 -49 -53 -141q-8 -33 -9 -60q0 -82 76 -72q37 -2 64 17q6 4 43 41l-23 -162q-63 -41 -121 -41q-41 0 -73 21q-68 43 -68 131z" />
<glyph unicode="&#xfc;" horiz-adv-x="1236" d="M80 399q0 41 4 95q23 238 195 368q61 47 147 60q8 0 125 4v-31q-150 -57 -203 -143q-80 -133 -80 -330q0 -86 15 -168q23 -117 75 -168q37 -35 84 -35q20 0 45 6q78 23 113 111q14 57 29 113q-53 150 -54 260q0 49 9 100q23 125 88 125q70 0 90 -125q8 -49 8 -96 q0 -109 -53 -264q14 -55 28 -113q35 -88 113 -111q25 -6 45 -6q47 0 84 35q51 51 74 168q16 86 16 172q0 195 -80 326q-53 86 -202 143v31q117 -4 125 -4q86 -12 147 -60q172 -130 195 -368q4 -49 4 -91q0 -115 -45 -225q-55 -133 -166 -184q-55 -27 -117 -27q-66 0 -121 33 q-84 49 -145 152q-59 -102 -144 -152q-55 -33 -120 -33q-59 0 -117 27q-113 53 -168 184q-43 106 -43 221zM553 -358q0 35 12 84q23 98 62 182h90q-29 -49 -53 -141q-8 -33 -9 -60q0 -82 76 -72q37 -2 64 17q6 4 43 41l-23 -162q-63 -41 -121 -41q-41 0 -73 21 q-68 43 -68 131zM600 1417q0 111 111 111q70 0 110 -62q35 -50 35 -118q0 -72 -68.5 -158t-140.5 -113l-16 37q47 23 99 84.5t52 108.5q0 27 -26 26q-4 0 -60 -6q-96 10 -96 90z" />
<glyph unicode="&#xff;" horiz-adv-x="1236" d="M80 399q0 41 4 95q23 238 195 368q61 47 147 60q8 0 125 4v-31q-150 -57 -203 -143q-80 -133 -80 -330q0 -86 15 -168q23 -117 75 -168q37 -35 84 -35q20 0 45 6q78 23 113 111q14 57 29 113q-53 150 -54 260q0 49 9 100q23 125 88 125q70 0 90 -125q8 -49 8 -96 q0 -109 -53 -264q14 -55 28 -113q35 -88 113 -111q25 -6 45 -6q47 0 84 35q51 51 74 168q16 86 16 172q0 195 -80 326q-53 86 -202 143v31q117 -4 125 -4q86 -12 147 -60q172 -130 195 -368q4 -49 4 -91q0 -115 -45 -225q-55 -133 -166 -184q-55 -27 -117 -27q-66 0 -121 33 q-84 49 -145 152q-59 -102 -144 -152q-55 -33 -120 -33q-59 0 -117 27q-113 53 -168 184q-43 106 -43 221zM299 1485q-4 123 81 206t232 83q152 0 236 -84q76 -76 86 -205h-68q-49 178 -241 178q-84 0 -162 -52t-96 -126h-68zM475 1290q0 68 35 119q41 61 111 61 q110 1 110 -110q0 -82 -98 -90q-55 6 -58 6q-27 0 -26 -27q0 -47 55 -110q49 -59 96 -82l-16 -37q-72 27 -137 110q-72 88 -72 160zM553 -358q0 35 12 84q23 98 62 182h90q-29 -49 -53 -141q-8 -33 -9 -60q0 -82 76 -72q37 -2 64 17q6 4 43 41l-23 -162q-63 -41 -121 -41 q-41 0 -73 21q-68 43 -68 131z" />
<glyph unicode="&#x152;" horiz-adv-x="948" d="M63 446q0 195 123 340q117 139 299 140q129 0 244 -80q199 -137 199 -393q0 -225 -162 -381q-111 -106 -270 -107q-104 0 -203 49q-229 158 -230 432zM127 1348q0 68 35 118q41 61 110 62q111 0 111 -111q0 -80 -96 -90q-55 6 -60 6q-27 0 -26 -26q0 -47 55 -111 q49 -59 96 -82l-16 -37q-72 27 -137 111q-72 88 -72 160zM242 510q0 -195 80 -338q74 -131 202 -131q98 0 163 97t65 290q0 227 -101 348q-78 94 -176 94q-61 0 -114.5 -37.5t-77.5 -93.5q-41 -96 -41 -229zM553 1130q0 4 2 11l180 401q8 18 47 19q39 0 64 -15 q12 -8 28.5 -32.5t16.5 -45.5q0 -10 -6 -18l-271 -342q-8 -10 -22 -10q-39 0 -39 32z" />
<glyph unicode="&#x153;" horiz-adv-x="948" d="M63 446q0 195 123 340q117 139 299 140q129 0 244 -80q199 -137 199 -393q0 -225 -162 -381q-111 -106 -270 -107q-104 0 -203 49q-229 158 -230 432zM219 1417q0 111 111 111q70 0 110 -62q35 -50 35 -118q0 -72 -68.5 -158t-140.5 -113l-16 37q47 23 99 84.5t52 108.5 q0 27 -26 26q-4 0 -60 -6q-96 10 -96 90zM242 510q0 -195 80 -338q74 -131 202 -131q98 0 163 97t65 290q0 227 -101 348q-78 94 -176 94q-61 0 -114.5 -37.5t-77.5 -93.5q-41 -96 -41 -229zM557 1130q0 4 2 11l180 401q8 18 47 19q39 0 64 -15q12 -8 28.5 -32.5t16.5 -45.5 q0 -10 -6 -18l-271 -342q-8 -10 -22 -10q-39 0 -39 32z" />
<glyph unicode="&#x178;" d="M76 420q0 63 10 135q29 205 201 322q76 51 194 51q137 0 226 -113q74 -94 98 -242l119 330h163l-213 -588q20 -121 76 -174q37 -35 68 -35t57 27q35 35 43 123h35l-4 -111q-4 -94 -70 -147q-31 -25 -59 -25q-33 0 -66 31q-53 51 -118 227q-68 -117 -68 -118 q-66 -84 -170 -117q-86 -27 -147 -27q-74 0 -150 33q-102 45 -158 139q-68 115 -67 279zM154 1348q0 68 34 118q41 61 111 62q111 0 111 -111q0 -80 -99 -90q-55 6 -57 6q-27 0 -27 -26q0 -47 56 -111q49 -59 96 -82l-17 -37q-72 27 -137 111q-72 88 -71 160zM274 553 q-18 -145 13 -309q18 -102 71.5 -155.5t116.5 -57.5q49 -4 112.5 49t110.5 182l56 152q-31 233 -82 315q-55 90 -133 113q-43 12 -74 12q-57 0 -109 -63q-61 -78 -82 -238zM610 1466q0 20 17.5 46t29.5 34q23 14 64 15q37 0 45 -19l182 -401q2 -4 2 -11q0 -20 -24 -30 q-25 -10 -39 8l-271 342q-6 6 -6 16z" />
<glyph unicode="&#x2c6;" horiz-adv-x="1236" d="M80 399q0 41 4 95q23 238 195 368q61 47 147 60q8 0 125 4v-31q-150 -57 -203 -143q-80 -133 -80 -330q0 -86 15 -168q23 -117 75 -168q37 -35 84 -35q20 0 45 6q78 23 113 111q14 57 29 113q-53 150 -54 260q0 49 9 100q23 125 88 125q70 0 90 -125q8 -49 8 -96 q0 -109 -53 -264q14 -55 28 -113q35 -88 113 -111q25 -6 45 -6q47 0 84 35q51 51 74 168q16 86 16 172q0 195 -80 326q-53 86 -202 143v31q117 -4 125 -4q86 -12 147 -60q172 -130 195 -368q4 -49 4 -91q0 -115 -45 -225q-55 -133 -166 -184q-55 -27 -117 -27q-66 0 -121 33 q-84 49 -145 152q-59 -102 -144 -152q-55 -33 -120 -33q-59 0 -117 27q-113 53 -168 184q-43 106 -43 221zM289 1159q-6 123 87 207t255 84q164 0 256 -86q82 -76 94 -205h-74q-53 180 -264 180q-90 0 -175 -53t-106 -127h-73zM553 -358q0 35 12 84q23 98 62 182h90 q-29 -49 -53 -141q-8 -33 -9 -60q0 -82 76 -72q37 -2 64 17q6 4 43 41l-23 -162q-63 -41 -121 -41q-41 0 -73 21q-68 43 -68 131z" />
<glyph unicode="&#x2dc;" horiz-adv-x="1236" d="M80 399q0 41 4 95q23 238 195 368q61 47 147 60q8 0 125 4v-31q-150 -57 -203 -143q-80 -133 -80 -330q0 -86 15 -168q23 -117 75 -168q37 -35 84 -35q20 0 45 6q78 23 113 111q14 57 29 113q-53 150 -54 260q0 49 9 100q23 125 88 125q70 0 90 -125q8 -49 8 -96 q0 -109 -53 -264q14 -55 28 -113q35 -88 113 -111q25 -6 45 -6q47 0 84 35q51 51 74 168q16 86 16 172q0 195 -80 326q-53 86 -202 143v31q117 -4 125 -4q86 -12 147 -60q172 -130 195 -368q4 -49 4 -91q0 -115 -45 -225q-55 -133 -166 -184q-55 -27 -117 -27q-66 0 -121 33 q-84 49 -145 152q-59 -102 -144 -152q-55 -33 -120 -33q-59 0 -117 27q-113 53 -168 184q-43 106 -43 221zM449 1348q0 68 34 118q41 61 111 62q111 0 111 -111q0 -80 -99 -90q-55 6 -57 6q-27 0 -27 -26q0 -47 56 -111q49 -59 96 -82l-17 -37q-72 27 -137 111 q-72 88 -71 160z" />
<glyph unicode="&#x2000;" horiz-adv-x="887" />
<glyph unicode="&#x2001;" horiz-adv-x="1774" />
<glyph unicode="&#x2002;" horiz-adv-x="887" />
<glyph unicode="&#x2003;" horiz-adv-x="1774" />
<glyph unicode="&#x2004;" horiz-adv-x="591" />
<glyph unicode="&#x2005;" horiz-adv-x="443" />
<glyph unicode="&#x2006;" horiz-adv-x="295" />
<glyph unicode="&#x2007;" horiz-adv-x="295" />
<glyph unicode="&#x2008;" horiz-adv-x="221" />
<glyph unicode="&#x2009;" horiz-adv-x="354" />
<glyph unicode="&#x200a;" horiz-adv-x="98" />
<glyph unicode="&#x2010;" horiz-adv-x="681" d="M88 397v129h504v-129h-504z" />
<glyph unicode="&#x2011;" horiz-adv-x="681" d="M88 397v129h504v-129h-504z" />
<glyph unicode="&#x2012;" horiz-adv-x="681" d="M88 397v129h504v-129h-504z" />
<glyph unicode="&#x2013;" horiz-adv-x="714" d="M102 614q0 106 75 181t181 75t181 -75t75 -181t-74.5 -181t-181.5 -75q-106 0 -181 75t-75 181z" />
<glyph unicode="&#x2014;" horiz-adv-x="407" d="M139 0v1397h131v-1397h-131z" />
<glyph unicode="&#x2018;" horiz-adv-x="829" d="M100 231q0 35 11 68q37 119 196 168q-80 37 -110 59q-37 29 -56 74q-14 35 -14 72q0 100 96 176q104 82 283 82q96 0 143 -19q88 -35 123 -86q20 -33 21 -63q0 -51 -45 -78q-14 -8 -39 -8q-76 0 -101 96q-23 90 -133 90q-39 0 -76 -16q-102 -47 -102 -176q0 -23 2 -37 q29 -143 195 -127l100 10q80 8 80 -41q0 -25 -37 -43q-43 -23 -123 -8q-27 4 -51 4q-168 0 -168 -180q0 -68 29 -105q72 -96 239 -96q63 0 109 14q92 29 133 150l47 -12q-4 -154 -195 -209q-88 -25 -176 -25q-156 0 -272 72q-109 68 -109 194zM190 1417q0 111 111 111 q70 0 111 -62q34 -50 34 -118q0 -72 -68.5 -158t-139.5 -113l-17 37q47 23 99.5 84.5t52.5 108.5q0 27 -27 26q-4 0 -59 -6q-96 10 -97 90zM526 1130q0 6 2 11l183 401q8 18 45 19q39 0 63 -15q12 -8 28.5 -32.5t16.5 -45.5q0 -10 -6 -18l-268 -342q-8 -10 -23 -10 q-41 0 -41 32z" />
<glyph unicode="&#x2019;" horiz-adv-x="829" d="M100 231q0 35 11 68q37 119 196 168q-80 37 -110 59q-37 29 -56 74q-14 35 -14 72q0 100 96 176q104 82 283 82q96 0 143 -19q88 -35 123 -86q20 -33 21 -63q0 -51 -45 -78q-14 -8 -39 -8q-76 0 -101 96q-23 90 -133 90q-39 0 -76 -16q-102 -47 -102 -176q0 -23 2 -37 q29 -143 195 -127l100 10q80 8 80 -41q0 -25 -37 -43q-43 -23 -123 -8q-27 4 -51 4q-168 0 -168 -180q0 -68 29 -105q72 -96 239 -96q63 0 109 14q92 29 133 150l47 -12q-4 -154 -195 -209q-88 -25 -176 -25q-156 0 -272 72q-109 68 -109 194zM117 1348q0 68 35 118 q41 61 110 62q111 0 111 -111q0 -80 -99 -90q-55 6 -57 6q-27 0 -27 -26q0 -47 56 -111q49 -59 96 -82l-16 -37q-72 27 -138 111q-72 88 -71 160zM526 1130q0 6 2 11l183 401q8 18 45 19q39 0 63 -15q12 -8 28.5 -32.5t16.5 -45.5q0 -10 -6 -18l-268 -342q-8 -10 -23 -10 q-41 0 -41 32z" />
<glyph unicode="&#x201a;" horiz-adv-x="829" d="M100 231q0 35 11 68q37 119 196 168q-80 37 -110 59q-37 29 -56 74q-14 35 -14 72q0 100 96 176q104 82 283 82q96 0 143 -19q88 -35 123 -86q20 -33 21 -63q0 -51 -45 -78q-14 -8 -39 -8q-76 0 -101 96q-23 90 -133 90q-39 0 -76 -16q-102 -47 -102 -176q0 -23 2 -37 q29 -143 195 -127l100 10q80 8 80 -41q0 -25 -37 -43q-43 -23 -123 -8q-27 4 -51 4q-168 0 -168 -180q0 -68 29 -105q72 -96 239 -96q63 0 109 14q92 29 133 150l47 -12q-4 -154 -195 -209q-88 -25 -176 -25q-156 0 -272 72q-109 68 -109 194zM188 1466q0 20 17.5 46 t30.5 34q23 14 63 15q37 0 45 -19l182 -401q2 -4 2 -11q0 -20 -24 -30q-25 -10 -39 8l-270 342q-6 6 -7 16z" />
<glyph unicode="&#x201c;" d="M76 420q0 63 10 135q29 205 201 322q76 51 194 51q137 0 226 -113q74 -94 98 -242l119 330h163l-213 -588q20 -121 76 -174q37 -35 68 -35t57 27q35 35 43 123h35l-4 -111q-4 -94 -70 -147q-31 -25 -59 -25q-33 0 -66 31q-53 51 -118 227q-68 -117 -68 -118 q-66 -84 -170 -117q-86 -27 -147 -27q-74 0 -150 33q-102 45 -158 139q-68 115 -67 279zM274 553q-18 -145 13 -309q18 -102 71.5 -155.5t116.5 -57.5q49 -4 112.5 49t110.5 182l56 152q-31 233 -82 315q-55 90 -133 113q-43 12 -74 12q-57 0 -109 -63q-61 -78 -82 -238z M293 1417q0 111 110 111q70 0 111 -62q35 -50 35 -118q0 -72 -68.5 -158t-140.5 -113l-16 37q47 23 99 84.5t52 108.5q0 27 -26 26q-4 0 -60 -6q-96 10 -96 90zM629 1130q0 4 2 11l180 401q8 18 47 19q39 0 64 -15q12 -8 28.5 -32.5t16.5 -45.5q0 -10 -6 -18l-271 -342 q-8 -10 -22 -10q-39 0 -39 32z" />
<glyph unicode="&#x201d;" d="M76 420q0 63 10 135q29 205 201 322q76 51 194 51q137 0 226 -113q74 -94 98 -242l119 330h163l-213 -588q20 -121 76 -174q37 -35 68 -35t57 27q35 35 43 123h35l-4 -111q-4 -94 -70 -147q-31 -25 -59 -25q-33 0 -66 31q-53 51 -118 227q-68 -117 -68 -118 q-66 -84 -170 -117q-86 -27 -147 -27q-74 0 -150 33q-102 45 -158 139q-68 115 -67 279zM209 1348q0 68 35 118q41 61 110 62q111 0 111 -111q0 -80 -96 -90q-55 6 -60 6q-27 0 -26 -26q0 -47 55 -111q49 -59 96 -82l-16 -37q-72 27 -137 111q-72 88 -72 160zM274 553 q-18 -145 13 -309q18 -102 71.5 -155.5t116.5 -57.5q49 -4 112.5 49t110.5 182l56 152q-31 233 -82 315q-55 90 -133 113q-43 12 -74 12q-57 0 -109 -63q-61 -78 -82 -238zM623 1130q0 6 2 11l182 401q8 18 45 19q39 0 63 -15q12 -8 29 -30q18 -29 19 -50q-1 -10 -7 -16 l-270 -342q-8 -10 -22 -10q-41 0 -41 32z" />
<glyph unicode="&#x201e;" horiz-adv-x="829" d="M100 231q0 35 11 68q37 119 196 168q-80 37 -110 59q-37 29 -56 74q-14 35 -14 72q0 100 96 176q104 82 283 82q96 0 143 -19q88 -35 123 -86q20 -33 21 -63q0 -51 -45 -78q-14 -8 -39 -8q-76 0 -101 96q-23 90 -133 90q-39 0 -76 -16q-102 -47 -102 -176q0 -23 2 -37 q29 -143 195 -127l100 10q80 8 80 -41q0 -25 -37 -43q-43 -23 -123 -8q-27 4 -51 4q-168 0 -168 -180q0 -68 29 -105q72 -96 239 -96q63 0 109 14q92 29 133 150l47 -12q-4 -154 -195 -209q-88 -25 -176 -25q-156 0 -272 72q-109 68 -109 194zM236 1348q0 68 34 118 q41 61 111 62q111 0 111 -111q0 -80 -97 -90q-55 6 -59 6q-27 0 -27 -26q0 -47 56 -111q49 -59 96 -82l-17 -37q-72 27 -137 111q-72 88 -71 160z" />
<glyph unicode="&#x2022;" d="M76 420q0 63 10 135q29 205 201 322q76 51 194 51q137 0 226 -113q74 -94 98 -242l119 330h163l-213 -588q20 -121 76 -174q37 -35 68 -35t57 27q35 35 43 123h35l-4 -111q-4 -94 -70 -147q-31 -25 -59 -25q-33 0 -66 31q-53 51 -118 227q-68 -117 -68 -118 q-66 -84 -170 -117q-86 -27 -147 -27q-74 0 -150 33q-102 45 -158 139q-68 115 -67 279zM262 1417q0 111 111 111q70 0 110 -62q35 -50 35 -118q0 -72 -68.5 -158t-140.5 -113l-16 37q47 23 99 84.5t52 108.5q0 27 -26 26q-4 0 -60 -6q-96 10 -96 90zM274 553 q-18 -145 13 -309q18 -102 71.5 -155.5t116.5 -57.5q49 -4 112.5 49t110.5 182l56 152q-31 233 -82 315q-55 90 -133 113q-43 12 -74 12q-57 0 -109 -63q-61 -78 -82 -238zM627 1466q0 20 17.5 46t29.5 34q23 14 63 15q37 0 45 -19l183 -401q2 -4 2 -11q0 -20 -25 -30t-39 8 l-270 342q-6 6 -6 16z" />
<glyph unicode="&#x2026;" horiz-adv-x="1931" d="M238 80q0 47 33.5 81t80.5 34t81 -34t34 -81t-34 -81t-81 -34t-80.5 34t-33.5 81zM866 80q0 47 34 81t81 34t81 -34t34 -81t-34 -81t-81 -34t-81 34t-34 81zM1485 80q0 47 32.5 81t79.5 34t81 -34t34 -81t-33.5 -81t-81.5 -34q-47 0 -79.5 34t-32.5 81z" />
<glyph unicode="&#x202f;" horiz-adv-x="354" />
<glyph unicode="&#x2039;" horiz-adv-x="1044" d="M12 659q16 49 31 97q23 66 47.5 103.5t71.5 57t86 15.5q51 -6 91 -41t46 -72q35 -219 35 -500q0 -131 76 -215q55 -61 108 -61q37 0 80 23q70 39 114 159.5t44 261.5q0 72 -13 138q-23 123 -92 198q-33 39 -108 84l10 33q205 -78 289 -217q63 -106 63 -270 q0 -147 -55 -263q-70 -145 -213 -196q-74 -27 -150 -27q-61 0 -112 19q-72 25 -134.5 112.5t-64.5 235.5q-2 117 -4 235q-4 137 -22 183q-16 39 -58 39q-29 0 -59 -23q-18 -12 -66 -109h-41zM127 1348q0 68 35 118q41 61 110 62q111 0 111 -111q0 -80 -96 -90q-55 6 -60 6 q-27 0 -26 -26q0 -47 55 -111q49 -59 96 -82l-16 -37q-72 27 -137 111q-72 88 -72 160zM555 1130q0 4 2 11l180 401q8 18 47 19q39 0 64 -15q12 -8 28.5 -32.5t16.5 -45.5q0 -10 -6 -18l-271 -342q-8 -10 -22 -10q-39 0 -39 32z" />
<glyph unicode="&#x203a;" horiz-adv-x="602" d="M57 1286q0 39 31 71t70 32q41 0 71.5 -31t30.5 -72t-30.5 -71.5t-71.5 -30.5q-39 0 -70 30.5t-31 71.5zM82 836v38q113 23 336 105v-717q0 -115 34.5 -160t65.5 -45q14 0 35 6q41 10 59 62q10 35 19 70h37q-20 -98 -45 -140q-59 -98 -187 -90q-86 6 -139 74 q-43 55 -43 104v465q0 164 -64 209q-25 18 -108 19zM465 1286q0 39 30.5 71t69.5 32q41 0 72 -31t31 -72t-31 -71.5t-72 -30.5q-39 0 -69.5 30.5t-30.5 71.5z" />
<glyph unicode="&#x205f;" horiz-adv-x="443" />
<glyph unicode="&#x2122;" horiz-adv-x="829" d="M100 231q0 35 11 68q37 119 196 168q-80 37 -110 59q-37 29 -56 74q-14 35 -14 72q0 100 96 176q104 82 283 82q96 0 143 -19q88 -35 123 -86q20 -33 21 -63q0 -51 -45 -78q-14 -8 -39 -8q-76 0 -101 96q-23 90 -133 90q-39 0 -76 -16q-102 -47 -102 -176q0 -23 2 -37 q29 -143 195 -127l100 10q80 8 80 -41q0 -25 -37 -43q-43 -23 -123 -8q-27 4 -51 4q-168 0 -168 -180q0 -68 29 -105q72 -96 239 -96q63 0 109 14q92 29 133 150l47 -12q-4 -154 -195 -209q-88 -25 -176 -25q-156 0 -272 72q-109 68 -109 194zM352 1130q0 6 2 11l183 401 q8 18 45 19q39 0 63 -15q12 -8 29 -30q18 -29 18 -50q0 -10 -6 -16l-270 -342q-8 -10 -23 -10q-41 0 -41 32z" />
<glyph unicode="&#x25fc;" horiz-adv-x="921" d="M0 0v922h922v-922h-922z" />
</font>
</defs>
</svg>
